solid OpenSCAD_Model
  facet normal 0.951056 -0.309019 0
    outer loop
      vertex 98.15 60.75 2
      vertex 98.2646 61.1027 0
      vertex 98.2646 61.1027 2
    endloop
  endfacet
  facet normal 0.951056 -0.309019 0
    outer loop
      vertex 98.2646 61.1027 0
      vertex 98.15 60.75 2
      vertex 98.15 60.75 0
    endloop
  endfacet
  facet normal -0.587674 0.809097 0
    outer loop
      vertex 99.2354 60.3973 0
      vertex 98.9354 60.1794 2
      vertex 99.2354 60.3973 2
    endloop
  endfacet
  facet normal -0.587674 0.809097 0
    outer loop
      vertex 98.9354 60.1794 2
      vertex 99.2354 60.3973 0
      vertex 98.9354 60.1794 0
    endloop
  endfacet
  facet normal -0.951056 0.309019 0
    outer loop
      vertex 99.2354 60.3973 0
      vertex 99.35 60.75 2
      vertex 99.35 60.75 0
    endloop
  endfacet
  facet normal -0.951056 0.309019 0
    outer loop
      vertex 99.35 60.75 2
      vertex 99.2354 60.3973 0
      vertex 99.2354 60.3973 2
    endloop
  endfacet
  facet normal 0 1 -0
    outer loop
      vertex 98.9354 60.1794 0
      vertex 98.5646 60.1794 2
      vertex 98.9354 60.1794 2
    endloop
  endfacet
  facet normal 0 1 0
    outer loop
      vertex 98.5646 60.1794 2
      vertex 98.9354 60.1794 0
      vertex 98.5646 60.1794 0
    endloop
  endfacet
  facet normal 0.587674 -0.809097 0
    outer loop
      vertex 98.2646 61.1027 0
      vertex 98.5646 61.3206 2
      vertex 98.2646 61.1027 2
    endloop
  endfacet
  facet normal 0.587674 -0.809097 0
    outer loop
      vertex 98.5646 61.3206 2
      vertex 98.2646 61.1027 0
      vertex 98.5646 61.3206 0
    endloop
  endfacet
  facet normal -0.951056 -0.309019 0
    outer loop
      vertex 99.35 60.75 0
      vertex 99.2354 61.1027 2
      vertex 99.2354 61.1027 0
    endloop
  endfacet
  facet normal -0.951056 -0.309019 0
    outer loop
      vertex 99.2354 61.1027 2
      vertex 99.35 60.75 0
      vertex 99.35 60.75 2
    endloop
  endfacet
  facet normal 0.587674 0.809097 -0
    outer loop
      vertex 98.5646 60.1794 0
      vertex 98.2646 60.3973 2
      vertex 98.5646 60.1794 2
    endloop
  endfacet
  facet normal 0.587674 0.809097 0
    outer loop
      vertex 98.2646 60.3973 2
      vertex 98.5646 60.1794 0
      vertex 98.2646 60.3973 0
    endloop
  endfacet
  facet normal 0 -1 0
    outer loop
      vertex 98.5646 61.3206 0
      vertex 98.9354 61.3206 2
      vertex 98.5646 61.3206 2
    endloop
  endfacet
  facet normal 0 -1 -0
    outer loop
      vertex 98.9354 61.3206 2
      vertex 98.5646 61.3206 0
      vertex 98.9354 61.3206 0
    endloop
  endfacet
  facet normal -0.587674 -0.809097 0
    outer loop
      vertex 98.9354 61.3206 0
      vertex 99.2354 61.1027 2
      vertex 98.9354 61.3206 2
    endloop
  endfacet
  facet normal -0.587674 -0.809097 -0
    outer loop
      vertex 99.2354 61.1027 2
      vertex 98.9354 61.3206 0
      vertex 99.2354 61.1027 0
    endloop
  endfacet
  facet normal 0.951056 0.309019 0
    outer loop
      vertex 98.2646 60.3973 2
      vertex 98.15 60.75 0
      vertex 98.15 60.75 2
    endloop
  endfacet
  facet normal 0.951056 0.309019 0
    outer loop
      vertex 98.15 60.75 0
      vertex 98.2646 60.3973 2
      vertex 98.2646 60.3973 0
    endloop
  endfacet
  facet normal 0.951056 -0.309019 0
    outer loop
      vertex 98.15 65.25 2
      vertex 98.2646 65.6027 0
      vertex 98.2646 65.6027 2
    endloop
  endfacet
  facet normal 0.951056 -0.309019 0
    outer loop
      vertex 98.2646 65.6027 0
      vertex 98.15 65.25 2
      vertex 98.15 65.25 0
    endloop
  endfacet
  facet normal -0.587674 0.809097 0
    outer loop
      vertex 99.2354 64.8973 0
      vertex 98.9354 64.6794 2
      vertex 99.2354 64.8973 2
    endloop
  endfacet
  facet normal -0.587674 0.809097 0
    outer loop
      vertex 98.9354 64.6794 2
      vertex 99.2354 64.8973 0
      vertex 98.9354 64.6794 0
    endloop
  endfacet
  facet normal -0.951056 0.309019 0
    outer loop
      vertex 99.2354 64.8973 0
      vertex 99.35 65.25 2
      vertex 99.35 65.25 0
    endloop
  endfacet
  facet normal -0.951056 0.309019 0
    outer loop
      vertex 99.35 65.25 2
      vertex 99.2354 64.8973 0
      vertex 99.2354 64.8973 2
    endloop
  endfacet
  facet normal 0 1 -0
    outer loop
      vertex 98.9354 64.6794 0
      vertex 98.5646 64.6794 2
      vertex 98.9354 64.6794 2
    endloop
  endfacet
  facet normal 0 1 0
    outer loop
      vertex 98.5646 64.6794 2
      vertex 98.9354 64.6794 0
      vertex 98.5646 64.6794 0
    endloop
  endfacet
  facet normal 0.587674 -0.809097 0
    outer loop
      vertex 98.2646 65.6027 0
      vertex 98.5646 65.8206 2
      vertex 98.2646 65.6027 2
    endloop
  endfacet
  facet normal 0.587674 -0.809097 0
    outer loop
      vertex 98.5646 65.8206 2
      vertex 98.2646 65.6027 0
      vertex 98.5646 65.8206 0
    endloop
  endfacet
  facet normal -0.951056 -0.309019 0
    outer loop
      vertex 99.35 65.25 0
      vertex 99.2354 65.6027 2
      vertex 99.2354 65.6027 0
    endloop
  endfacet
  facet normal -0.951056 -0.309019 0
    outer loop
      vertex 99.2354 65.6027 2
      vertex 99.35 65.25 0
      vertex 99.35 65.25 2
    endloop
  endfacet
  facet normal 0.587674 0.809097 -0
    outer loop
      vertex 98.5646 64.6794 0
      vertex 98.2646 64.8973 2
      vertex 98.5646 64.6794 2
    endloop
  endfacet
  facet normal 0.587674 0.809097 0
    outer loop
      vertex 98.2646 64.8973 2
      vertex 98.5646 64.6794 0
      vertex 98.2646 64.8973 0
    endloop
  endfacet
  facet normal 0 -1 0
    outer loop
      vertex 98.5646 65.8206 0
      vertex 98.9354 65.8206 2
      vertex 98.5646 65.8206 2
    endloop
  endfacet
  facet normal 0 -1 -0
    outer loop
      vertex 98.9354 65.8206 2
      vertex 98.5646 65.8206 0
      vertex 98.9354 65.8206 0
    endloop
  endfacet
  facet normal -0.587674 -0.809097 0
    outer loop
      vertex 98.9354 65.8206 0
      vertex 99.2354 65.6027 2
      vertex 98.9354 65.8206 2
    endloop
  endfacet
  facet normal -0.587674 -0.809097 -0
    outer loop
      vertex 99.2354 65.6027 2
      vertex 98.9354 65.8206 0
      vertex 99.2354 65.6027 0
    endloop
  endfacet
  facet normal 0.951056 0.309019 0
    outer loop
      vertex 98.2646 64.8973 2
      vertex 98.15 65.25 0
      vertex 98.15 65.25 2
    endloop
  endfacet
  facet normal 0.951056 0.309019 0
    outer loop
      vertex 98.15 65.25 0
      vertex 98.2646 64.8973 2
      vertex 98.2646 64.8973 0
    endloop
  endfacet
  facet normal 0.950738 -0.309994 0
    outer loop
      vertex 104.65 60.75 2
      vertex 104.765 61.1027 0
      vertex 104.765 61.1027 2
    endloop
  endfacet
  facet normal 0.950738 -0.309994 0
    outer loop
      vertex 104.765 61.1027 0
      vertex 104.65 60.75 2
      vertex 104.65 60.75 0
    endloop
  endfacet
  facet normal -0.587674 0.809097 0
    outer loop
      vertex 105.735 60.3973 0
      vertex 105.435 60.1794 2
      vertex 105.735 60.3973 2
    endloop
  endfacet
  facet normal -0.587674 0.809097 0
    outer loop
      vertex 105.435 60.1794 2
      vertex 105.735 60.3973 0
      vertex 105.435 60.1794 0
    endloop
  endfacet
  facet normal -0.950738 0.309994 0
    outer loop
      vertex 105.735 60.3973 0
      vertex 105.85 60.75 2
      vertex 105.85 60.75 0
    endloop
  endfacet
  facet normal -0.950738 0.309994 0
    outer loop
      vertex 105.85 60.75 2
      vertex 105.735 60.3973 0
      vertex 105.735 60.3973 2
    endloop
  endfacet
  facet normal 0 1 -0
    outer loop
      vertex 105.435 60.1794 0
      vertex 105.065 60.1794 2
      vertex 105.435 60.1794 2
    endloop
  endfacet
  facet normal 0 1 0
    outer loop
      vertex 105.065 60.1794 2
      vertex 105.435 60.1794 0
      vertex 105.065 60.1794 0
    endloop
  endfacet
  facet normal 0.587674 -0.809097 0
    outer loop
      vertex 104.765 61.1027 0
      vertex 105.065 61.3206 2
      vertex 104.765 61.1027 2
    endloop
  endfacet
  facet normal 0.587674 -0.809097 0
    outer loop
      vertex 105.065 61.3206 2
      vertex 104.765 61.1027 0
      vertex 105.065 61.3206 0
    endloop
  endfacet
  facet normal -0.950738 -0.309994 0
    outer loop
      vertex 105.85 60.75 0
      vertex 105.735 61.1027 2
      vertex 105.735 61.1027 0
    endloop
  endfacet
  facet normal -0.950738 -0.309994 0
    outer loop
      vertex 105.735 61.1027 2
      vertex 105.85 60.75 0
      vertex 105.85 60.75 2
    endloop
  endfacet
  facet normal 0.587674 0.809097 -0
    outer loop
      vertex 105.065 60.1794 0
      vertex 104.765 60.3973 2
      vertex 105.065 60.1794 2
    endloop
  endfacet
  facet normal 0.587674 0.809097 0
    outer loop
      vertex 104.765 60.3973 2
      vertex 105.065 60.1794 0
      vertex 104.765 60.3973 0
    endloop
  endfacet
  facet normal 0 -1 0
    outer loop
      vertex 105.065 61.3206 0
      vertex 105.435 61.3206 2
      vertex 105.065 61.3206 2
    endloop
  endfacet
  facet normal 0 -1 -0
    outer loop
      vertex 105.435 61.3206 2
      vertex 105.065 61.3206 0
      vertex 105.435 61.3206 0
    endloop
  endfacet
  facet normal -0.587674 -0.809097 0
    outer loop
      vertex 105.435 61.3206 0
      vertex 105.735 61.1027 2
      vertex 105.435 61.3206 2
    endloop
  endfacet
  facet normal -0.587674 -0.809097 -0
    outer loop
      vertex 105.735 61.1027 2
      vertex 105.435 61.3206 0
      vertex 105.735 61.1027 0
    endloop
  endfacet
  facet normal 0.950738 0.309994 0
    outer loop
      vertex 104.765 60.3973 2
      vertex 104.65 60.75 0
      vertex 104.65 60.75 2
    endloop
  endfacet
  facet normal 0.950738 0.309994 0
    outer loop
      vertex 104.65 60.75 0
      vertex 104.765 60.3973 2
      vertex 104.765 60.3973 0
    endloop
  endfacet
  facet normal 0.950738 -0.309994 0
    outer loop
      vertex 104.65 65.25 2
      vertex 104.765 65.6027 0
      vertex 104.765 65.6027 2
    endloop
  endfacet
  facet normal 0.950738 -0.309994 0
    outer loop
      vertex 104.765 65.6027 0
      vertex 104.65 65.25 2
      vertex 104.65 65.25 0
    endloop
  endfacet
  facet normal -0.587674 0.809097 0
    outer loop
      vertex 105.735 64.8973 0
      vertex 105.435 64.6794 2
      vertex 105.735 64.8973 2
    endloop
  endfacet
  facet normal -0.587674 0.809097 0
    outer loop
      vertex 105.435 64.6794 2
      vertex 105.735 64.8973 0
      vertex 105.435 64.6794 0
    endloop
  endfacet
  facet normal -0.950738 0.309994 0
    outer loop
      vertex 105.735 64.8973 0
      vertex 105.85 65.25 2
      vertex 105.85 65.25 0
    endloop
  endfacet
  facet normal -0.950738 0.309994 0
    outer loop
      vertex 105.85 65.25 2
      vertex 105.735 64.8973 0
      vertex 105.735 64.8973 2
    endloop
  endfacet
  facet normal 0 1 -0
    outer loop
      vertex 105.435 64.6794 0
      vertex 105.065 64.6794 2
      vertex 105.435 64.6794 2
    endloop
  endfacet
  facet normal 0 1 0
    outer loop
      vertex 105.065 64.6794 2
      vertex 105.435 64.6794 0
      vertex 105.065 64.6794 0
    endloop
  endfacet
  facet normal 0.587674 -0.809097 0
    outer loop
      vertex 104.765 65.6027 0
      vertex 105.065 65.8206 2
      vertex 104.765 65.6027 2
    endloop
  endfacet
  facet normal 0.587674 -0.809097 0
    outer loop
      vertex 105.065 65.8206 2
      vertex 104.765 65.6027 0
      vertex 105.065 65.8206 0
    endloop
  endfacet
  facet normal -0.950738 -0.309994 0
    outer loop
      vertex 105.85 65.25 0
      vertex 105.735 65.6027 2
      vertex 105.735 65.6027 0
    endloop
  endfacet
  facet normal -0.950738 -0.309994 0
    outer loop
      vertex 105.735 65.6027 2
      vertex 105.85 65.25 0
      vertex 105.85 65.25 2
    endloop
  endfacet
  facet normal 0.587674 0.809097 -0
    outer loop
      vertex 105.065 64.6794 0
      vertex 104.765 64.8973 2
      vertex 105.065 64.6794 2
    endloop
  endfacet
  facet normal 0.587674 0.809097 0
    outer loop
      vertex 104.765 64.8973 2
      vertex 105.065 64.6794 0
      vertex 104.765 64.8973 0
    endloop
  endfacet
  facet normal 0 -1 0
    outer loop
      vertex 105.065 65.8206 0
      vertex 105.435 65.8206 2
      vertex 105.065 65.8206 2
    endloop
  endfacet
  facet normal 0 -1 -0
    outer loop
      vertex 105.435 65.8206 2
      vertex 105.065 65.8206 0
      vertex 105.435 65.8206 0
    endloop
  endfacet
  facet normal -0.587674 -0.809097 0
    outer loop
      vertex 105.435 65.8206 0
      vertex 105.735 65.6027 2
      vertex 105.435 65.8206 2
    endloop
  endfacet
  facet normal -0.587674 -0.809097 -0
    outer loop
      vertex 105.735 65.6027 2
      vertex 105.435 65.8206 0
      vertex 105.735 65.6027 0
    endloop
  endfacet
  facet normal 0.950738 0.309994 0
    outer loop
      vertex 104.765 64.8973 2
      vertex 104.65 65.25 0
      vertex 104.65 65.25 2
    endloop
  endfacet
  facet normal 0.950738 0.309994 0
    outer loop
      vertex 104.65 65.25 0
      vertex 104.765 64.8973 2
      vertex 104.765 64.8973 0
    endloop
  endfacet
  facet normal 0.951056 -0.309019 0
    outer loop
      vertex 98.15 42.75 2
      vertex 98.2646 43.1027 0
      vertex 98.2646 43.1027 2
    endloop
  endfacet
  facet normal 0.951056 -0.309019 0
    outer loop
      vertex 98.2646 43.1027 0
      vertex 98.15 42.75 2
      vertex 98.15 42.75 0
    endloop
  endfacet
  facet normal -0.587674 0.809097 0
    outer loop
      vertex 99.2354 42.3973 0
      vertex 98.9354 42.1794 2
      vertex 99.2354 42.3973 2
    endloop
  endfacet
  facet normal -0.587674 0.809097 0
    outer loop
      vertex 98.9354 42.1794 2
      vertex 99.2354 42.3973 0
      vertex 98.9354 42.1794 0
    endloop
  endfacet
  facet normal -0.951056 0.309019 0
    outer loop
      vertex 99.2354 42.3973 0
      vertex 99.35 42.75 2
      vertex 99.35 42.75 0
    endloop
  endfacet
  facet normal -0.951056 0.309019 0
    outer loop
      vertex 99.35 42.75 2
      vertex 99.2354 42.3973 0
      vertex 99.2354 42.3973 2
    endloop
  endfacet
  facet normal 0 1 -0
    outer loop
      vertex 98.9354 42.1794 0
      vertex 98.5646 42.1794 2
      vertex 98.9354 42.1794 2
    endloop
  endfacet
  facet normal 0 1 0
    outer loop
      vertex 98.5646 42.1794 2
      vertex 98.9354 42.1794 0
      vertex 98.5646 42.1794 0
    endloop
  endfacet
  facet normal -0.587674 -0.809097 0
    outer loop
      vertex 98.9354 43.3206 0
      vertex 99.2354 43.1027 2
      vertex 98.9354 43.3206 2
    endloop
  endfacet
  facet normal -0.587674 -0.809097 -0
    outer loop
      vertex 99.2354 43.1027 2
      vertex 98.9354 43.3206 0
      vertex 99.2354 43.1027 0
    endloop
  endfacet
  facet normal 0.587674 -0.809097 0
    outer loop
      vertex 98.2646 43.1027 0
      vertex 98.5646 43.3206 2
      vertex 98.2646 43.1027 2
    endloop
  endfacet
  facet normal 0.587674 -0.809097 0
    outer loop
      vertex 98.5646 43.3206 2
      vertex 98.2646 43.1027 0
      vertex 98.5646 43.3206 0
    endloop
  endfacet
  facet normal -0.951056 -0.309019 0
    outer loop
      vertex 99.35 42.75 0
      vertex 99.2354 43.1027 2
      vertex 99.2354 43.1027 0
    endloop
  endfacet
  facet normal -0.951056 -0.309019 0
    outer loop
      vertex 99.2354 43.1027 2
      vertex 99.35 42.75 0
      vertex 99.35 42.75 2
    endloop
  endfacet
  facet normal 0.587674 0.809097 -0
    outer loop
      vertex 98.5646 42.1794 0
      vertex 98.2646 42.3973 2
      vertex 98.5646 42.1794 2
    endloop
  endfacet
  facet normal 0.587674 0.809097 0
    outer loop
      vertex 98.2646 42.3973 2
      vertex 98.5646 42.1794 0
      vertex 98.2646 42.3973 0
    endloop
  endfacet
  facet normal 0 -1 0
    outer loop
      vertex 98.5646 43.3206 0
      vertex 98.9354 43.3206 2
      vertex 98.5646 43.3206 2
    endloop
  endfacet
  facet normal 0 -1 -0
    outer loop
      vertex 98.9354 43.3206 2
      vertex 98.5646 43.3206 0
      vertex 98.9354 43.3206 0
    endloop
  endfacet
  facet normal 0.951056 0.309019 0
    outer loop
      vertex 98.2646 42.3973 2
      vertex 98.15 42.75 0
      vertex 98.15 42.75 2
    endloop
  endfacet
  facet normal 0.951056 0.309019 0
    outer loop
      vertex 98.15 42.75 0
      vertex 98.2646 42.3973 2
      vertex 98.2646 42.3973 0
    endloop
  endfacet
  facet normal 0.951056 -0.309019 0
    outer loop
      vertex 98.15 47.25 2
      vertex 98.2646 47.6027 0
      vertex 98.2646 47.6027 2
    endloop
  endfacet
  facet normal 0.951056 -0.309019 0
    outer loop
      vertex 98.2646 47.6027 0
      vertex 98.15 47.25 2
      vertex 98.15 47.25 0
    endloop
  endfacet
  facet normal -0.587674 0.809097 0
    outer loop
      vertex 99.2354 46.8973 0
      vertex 98.9354 46.6794 2
      vertex 99.2354 46.8973 2
    endloop
  endfacet
  facet normal -0.587674 0.809097 0
    outer loop
      vertex 98.9354 46.6794 2
      vertex 99.2354 46.8973 0
      vertex 98.9354 46.6794 0
    endloop
  endfacet
  facet normal -0.951056 0.309019 0
    outer loop
      vertex 99.2354 46.8973 0
      vertex 99.35 47.25 2
      vertex 99.35 47.25 0
    endloop
  endfacet
  facet normal -0.951056 0.309019 0
    outer loop
      vertex 99.35 47.25 2
      vertex 99.2354 46.8973 0
      vertex 99.2354 46.8973 2
    endloop
  endfacet
  facet normal 0 1 -0
    outer loop
      vertex 98.9354 46.6794 0
      vertex 98.5646 46.6794 2
      vertex 98.9354 46.6794 2
    endloop
  endfacet
  facet normal 0 1 0
    outer loop
      vertex 98.5646 46.6794 2
      vertex 98.9354 46.6794 0
      vertex 98.5646 46.6794 0
    endloop
  endfacet
  facet normal 0.587674 -0.809097 0
    outer loop
      vertex 98.2646 47.6027 0
      vertex 98.5646 47.8206 2
      vertex 98.2646 47.6027 2
    endloop
  endfacet
  facet normal 0.587674 -0.809097 0
    outer loop
      vertex 98.5646 47.8206 2
      vertex 98.2646 47.6027 0
      vertex 98.5646 47.8206 0
    endloop
  endfacet
  facet normal -0.951056 -0.309019 0
    outer loop
      vertex 99.35 47.25 0
      vertex 99.2354 47.6027 2
      vertex 99.2354 47.6027 0
    endloop
  endfacet
  facet normal -0.951056 -0.309019 0
    outer loop
      vertex 99.2354 47.6027 2
      vertex 99.35 47.25 0
      vertex 99.35 47.25 2
    endloop
  endfacet
  facet normal 0.587674 0.809097 -0
    outer loop
      vertex 98.5646 46.6794 0
      vertex 98.2646 46.8973 2
      vertex 98.5646 46.6794 2
    endloop
  endfacet
  facet normal 0.587674 0.809097 0
    outer loop
      vertex 98.2646 46.8973 2
      vertex 98.5646 46.6794 0
      vertex 98.2646 46.8973 0
    endloop
  endfacet
  facet normal 0 -1 0
    outer loop
      vertex 98.5646 47.8206 0
      vertex 98.9354 47.8206 2
      vertex 98.5646 47.8206 2
    endloop
  endfacet
  facet normal 0 -1 -0
    outer loop
      vertex 98.9354 47.8206 2
      vertex 98.5646 47.8206 0
      vertex 98.9354 47.8206 0
    endloop
  endfacet
  facet normal -0.587674 -0.809097 0
    outer loop
      vertex 98.9354 47.8206 0
      vertex 99.2354 47.6027 2
      vertex 98.9354 47.8206 2
    endloop
  endfacet
  facet normal -0.587674 -0.809097 -0
    outer loop
      vertex 99.2354 47.6027 2
      vertex 98.9354 47.8206 0
      vertex 99.2354 47.6027 0
    endloop
  endfacet
  facet normal 0.951056 0.309019 0
    outer loop
      vertex 98.2646 46.8973 2
      vertex 98.15 47.25 0
      vertex 98.15 47.25 2
    endloop
  endfacet
  facet normal 0.951056 0.309019 0
    outer loop
      vertex 98.15 47.25 0
      vertex 98.2646 46.8973 2
      vertex 98.2646 46.8973 0
    endloop
  endfacet
  facet normal 0.950738 -0.309994 0
    outer loop
      vertex 104.65 42.75 2
      vertex 104.765 43.1027 0
      vertex 104.765 43.1027 2
    endloop
  endfacet
  facet normal 0.950738 -0.309994 0
    outer loop
      vertex 104.765 43.1027 0
      vertex 104.65 42.75 2
      vertex 104.65 42.75 0
    endloop
  endfacet
  facet normal -0.587674 0.809097 0
    outer loop
      vertex 105.735 42.3973 0
      vertex 105.435 42.1794 2
      vertex 105.735 42.3973 2
    endloop
  endfacet
  facet normal -0.587674 0.809097 0
    outer loop
      vertex 105.435 42.1794 2
      vertex 105.735 42.3973 0
      vertex 105.435 42.1794 0
    endloop
  endfacet
  facet normal -0.950738 0.309994 0
    outer loop
      vertex 105.735 42.3973 0
      vertex 105.85 42.75 2
      vertex 105.85 42.75 0
    endloop
  endfacet
  facet normal -0.950738 0.309994 0
    outer loop
      vertex 105.85 42.75 2
      vertex 105.735 42.3973 0
      vertex 105.735 42.3973 2
    endloop
  endfacet
  facet normal 0 1 -0
    outer loop
      vertex 105.435 42.1794 0
      vertex 105.065 42.1794 2
      vertex 105.435 42.1794 2
    endloop
  endfacet
  facet normal 0 1 0
    outer loop
      vertex 105.065 42.1794 2
      vertex 105.435 42.1794 0
      vertex 105.065 42.1794 0
    endloop
  endfacet
  facet normal -0.587674 -0.809097 0
    outer loop
      vertex 105.435 43.3206 0
      vertex 105.735 43.1027 2
      vertex 105.435 43.3206 2
    endloop
  endfacet
  facet normal -0.587674 -0.809097 -0
    outer loop
      vertex 105.735 43.1027 2
      vertex 105.435 43.3206 0
      vertex 105.735 43.1027 0
    endloop
  endfacet
  facet normal 0.587674 -0.809097 0
    outer loop
      vertex 104.765 43.1027 0
      vertex 105.065 43.3206 2
      vertex 104.765 43.1027 2
    endloop
  endfacet
  facet normal 0.587674 -0.809097 0
    outer loop
      vertex 105.065 43.3206 2
      vertex 104.765 43.1027 0
      vertex 105.065 43.3206 0
    endloop
  endfacet
  facet normal -0.950738 -0.309994 0
    outer loop
      vertex 105.85 42.75 0
      vertex 105.735 43.1027 2
      vertex 105.735 43.1027 0
    endloop
  endfacet
  facet normal -0.950738 -0.309994 0
    outer loop
      vertex 105.735 43.1027 2
      vertex 105.85 42.75 0
      vertex 105.85 42.75 2
    endloop
  endfacet
  facet normal 0.587674 0.809097 -0
    outer loop
      vertex 105.065 42.1794 0
      vertex 104.765 42.3973 2
      vertex 105.065 42.1794 2
    endloop
  endfacet
  facet normal 0.587674 0.809097 0
    outer loop
      vertex 104.765 42.3973 2
      vertex 105.065 42.1794 0
      vertex 104.765 42.3973 0
    endloop
  endfacet
  facet normal 0 -1 0
    outer loop
      vertex 105.065 43.3206 0
      vertex 105.435 43.3206 2
      vertex 105.065 43.3206 2
    endloop
  endfacet
  facet normal 0 -1 -0
    outer loop
      vertex 105.435 43.3206 2
      vertex 105.065 43.3206 0
      vertex 105.435 43.3206 0
    endloop
  endfacet
  facet normal 0.950738 0.309994 0
    outer loop
      vertex 104.765 42.3973 2
      vertex 104.65 42.75 0
      vertex 104.65 42.75 2
    endloop
  endfacet
  facet normal 0.950738 0.309994 0
    outer loop
      vertex 104.65 42.75 0
      vertex 104.765 42.3973 2
      vertex 104.765 42.3973 0
    endloop
  endfacet
  facet normal 0.950738 -0.309994 0
    outer loop
      vertex 104.65 47.25 2
      vertex 104.765 47.6027 0
      vertex 104.765 47.6027 2
    endloop
  endfacet
  facet normal 0.950738 -0.309994 0
    outer loop
      vertex 104.765 47.6027 0
      vertex 104.65 47.25 2
      vertex 104.65 47.25 0
    endloop
  endfacet
  facet normal -0.587674 0.809097 0
    outer loop
      vertex 105.735 46.8973 0
      vertex 105.435 46.6794 2
      vertex 105.735 46.8973 2
    endloop
  endfacet
  facet normal -0.587674 0.809097 0
    outer loop
      vertex 105.435 46.6794 2
      vertex 105.735 46.8973 0
      vertex 105.435 46.6794 0
    endloop
  endfacet
  facet normal -0.950738 0.309994 0
    outer loop
      vertex 105.735 46.8973 0
      vertex 105.85 47.25 2
      vertex 105.85 47.25 0
    endloop
  endfacet
  facet normal -0.950738 0.309994 0
    outer loop
      vertex 105.85 47.25 2
      vertex 105.735 46.8973 0
      vertex 105.735 46.8973 2
    endloop
  endfacet
  facet normal 0 1 -0
    outer loop
      vertex 105.435 46.6794 0
      vertex 105.065 46.6794 2
      vertex 105.435 46.6794 2
    endloop
  endfacet
  facet normal 0 1 0
    outer loop
      vertex 105.065 46.6794 2
      vertex 105.435 46.6794 0
      vertex 105.065 46.6794 0
    endloop
  endfacet
  facet normal 0.587674 -0.809097 0
    outer loop
      vertex 104.765 47.6027 0
      vertex 105.065 47.8206 2
      vertex 104.765 47.6027 2
    endloop
  endfacet
  facet normal 0.587674 -0.809097 0
    outer loop
      vertex 105.065 47.8206 2
      vertex 104.765 47.6027 0
      vertex 105.065 47.8206 0
    endloop
  endfacet
  facet normal -0.950738 -0.309994 0
    outer loop
      vertex 105.85 47.25 0
      vertex 105.735 47.6027 2
      vertex 105.735 47.6027 0
    endloop
  endfacet
  facet normal -0.950738 -0.309994 0
    outer loop
      vertex 105.735 47.6027 2
      vertex 105.85 47.25 0
      vertex 105.85 47.25 2
    endloop
  endfacet
  facet normal 0.587674 0.809097 -0
    outer loop
      vertex 105.065 46.6794 0
      vertex 104.765 46.8973 2
      vertex 105.065 46.6794 2
    endloop
  endfacet
  facet normal 0.587674 0.809097 0
    outer loop
      vertex 104.765 46.8973 2
      vertex 105.065 46.6794 0
      vertex 104.765 46.8973 0
    endloop
  endfacet
  facet normal 0 -1 0
    outer loop
      vertex 105.065 47.8206 0
      vertex 105.435 47.8206 2
      vertex 105.065 47.8206 2
    endloop
  endfacet
  facet normal 0 -1 -0
    outer loop
      vertex 105.435 47.8206 2
      vertex 105.065 47.8206 0
      vertex 105.435 47.8206 0
    endloop
  endfacet
  facet normal -0.587674 -0.809097 0
    outer loop
      vertex 105.435 47.8206 0
      vertex 105.735 47.6027 2
      vertex 105.435 47.8206 2
    endloop
  endfacet
  facet normal -0.587674 -0.809097 -0
    outer loop
      vertex 105.735 47.6027 2
      vertex 105.435 47.8206 0
      vertex 105.735 47.6027 0
    endloop
  endfacet
  facet normal 0.950738 0.309994 0
    outer loop
      vertex 104.765 46.8973 2
      vertex 104.65 47.25 0
      vertex 104.65 47.25 2
    endloop
  endfacet
  facet normal 0.950738 0.309994 0
    outer loop
      vertex 104.65 47.25 0
      vertex 104.765 46.8973 2
      vertex 104.765 46.8973 0
    endloop
  endfacet
  facet normal -0.0580239 0.998315 0
    outer loop
      vertex 95.7952 52.3258 0
      vertex 95.4012 52.3029 2
      vertex 95.7952 52.3258 2
    endloop
  endfacet
  facet normal -0.0580239 0.998315 0
    outer loop
      vertex 95.4012 52.3029 2
      vertex 95.7952 52.3258 0
      vertex 95.4012 52.3029 0
    endloop
  endfacet
  facet normal -0.939719 0.341946 0
    outer loop
      vertex 97.0192 53.237 0
      vertex 97.1542 53.608 2
      vertex 97.1542 53.608 0
    endloop
  endfacet
  facet normal -0.939719 0.341946 0
    outer loop
      vertex 97.1542 53.608 2
      vertex 97.0192 53.237 0
      vertex 97.0192 53.237 2
    endloop
  endfacet
  facet normal -0.993244 0.116047 0
    outer loop
      vertex 97.1542 53.608 0
      vertex 97.2 54 2
      vertex 97.2 54 0
    endloop
  endfacet
  facet normal -0.993244 0.116047 0
    outer loop
      vertex 97.2 54 2
      vertex 97.1542 53.608 0
      vertex 97.1542 53.608 2
    endloop
  endfacet
  facet normal -0.286813 -0.957987 0
    outer loop
      vertex 95.7952 55.6742 0
      vertex 96.1733 55.561 2
      vertex 95.7952 55.6742 2
    endloop
  endfacet
  facet normal -0.286813 -0.957987 -0
    outer loop
      vertex 96.1733 55.561 2
      vertex 95.7952 55.6742 0
      vertex 96.1733 55.561 0
    endloop
  endfacet
  facet normal 1 -0 0
    outer loop
      vertex 93.8115 53.8026 2
      vertex 93.8115 54.1974 0
      vertex 93.8115 54.1974 2
    endloop
  endfacet
  facet normal 1 0 0
    outer loop
      vertex 93.8115 54.1974 0
      vertex 93.8115 53.8026 2
      vertex 93.8115 53.8026 0
    endloop
  endfacet
  facet normal -0.286813 0.957987 0
    outer loop
      vertex 96.1733 52.439 0
      vertex 95.7952 52.3258 2
      vertex 96.1733 52.439 2
    endloop
  endfacet
  facet normal -0.286813 0.957987 0
    outer loop
      vertex 95.7952 52.3258 2
      vertex 96.1733 52.439 0
      vertex 95.7952 52.3258 0
    endloop
  endfacet
  facet normal 0.765994 0.642847 0
    outer loop
      vertex 94.3334 52.7635 2
      vertex 94.0797 53.0658 0
      vertex 94.0797 53.0658 2
    endloop
  endfacet
  facet normal 0.765994 0.642847 0
    outer loop
      vertex 94.0797 53.0658 0
      vertex 94.3334 52.7635 2
      vertex 94.3334 52.7635 0
    endloop
  endfacet
  facet normal -0.0580239 -0.998315 0
    outer loop
      vertex 95.4012 55.6971 0
      vertex 95.7952 55.6742 2
      vertex 95.4012 55.6971 2
    endloop
  endfacet
  facet normal -0.0580239 -0.998315 -0
    outer loop
      vertex 95.7952 55.6742 2
      vertex 95.4012 55.6971 0
      vertex 95.7952 55.6742 0
    endloop
  endfacet
  facet normal -0.993244 -0.116047 0
    outer loop
      vertex 97.2 54 0
      vertex 97.1542 54.392 2
      vertex 97.1542 54.392 0
    endloop
  endfacet
  facet normal -0.993244 -0.116047 0
    outer loop
      vertex 97.1542 54.392 2
      vertex 97.2 54 0
      vertex 97.2 54 2
    endloop
  endfacet
  facet normal -0.686289 -0.727329 0
    outer loop
      vertex 96.5152 55.3636 0
      vertex 96.8023 55.0927 2
      vertex 96.5152 55.3636 2
    endloop
  endfacet
  facet normal -0.686289 -0.727329 -0
    outer loop
      vertex 96.8023 55.0927 2
      vertex 96.5152 55.3636 0
      vertex 96.8023 55.0927 0
    endloop
  endfacet
  facet normal -0.835426 0.549603 0
    outer loop
      vertex 96.8023 52.9073 0
      vertex 97.0192 53.237 2
      vertex 97.0192 53.237 0
    endloop
  endfacet
  facet normal -0.835426 0.549603 0
    outer loop
      vertex 97.0192 53.237 2
      vertex 96.8023 52.9073 0
      vertex 96.8023 52.9073 2
    endloop
  endfacet
  facet normal 0.173511 -0.984832 0
    outer loop
      vertex 95.0124 55.6286 0
      vertex 95.4012 55.6971 2
      vertex 95.0124 55.6286 2
    endloop
  endfacet
  facet normal 0.173511 -0.984832 0
    outer loop
      vertex 95.4012 55.6971 2
      vertex 95.0124 55.6286 0
      vertex 95.4012 55.6971 0
    endloop
  endfacet
  facet normal 0.396242 0.918146 -0
    outer loop
      vertex 95.0124 52.3714 0
      vertex 94.65 52.5278 2
      vertex 95.0124 52.3714 2
    endloop
  endfacet
  facet normal 0.396242 0.918146 0
    outer loop
      vertex 94.65 52.5278 2
      vertex 95.0124 52.3714 0
      vertex 94.65 52.5278 0
    endloop
  endfacet
  facet normal 0.893615 0.448834 0
    outer loop
      vertex 94.0797 53.0658 2
      vertex 93.9025 53.4186 0
      vertex 93.9025 53.4186 2
    endloop
  endfacet
  facet normal 0.893615 0.448834 0
    outer loop
      vertex 93.9025 53.4186 0
      vertex 94.0797 53.0658 2
      vertex 94.0797 53.0658 0
    endloop
  endfacet
  facet normal 0.765994 -0.642847 0
    outer loop
      vertex 94.0797 54.9342 2
      vertex 94.3334 55.2365 0
      vertex 94.3334 55.2365 2
    endloop
  endfacet
  facet normal 0.765994 -0.642847 0
    outer loop
      vertex 94.3334 55.2365 0
      vertex 94.0797 54.9342 2
      vertex 94.0797 54.9342 0
    endloop
  endfacet
  facet normal -0.939719 -0.341946 0
    outer loop
      vertex 97.1542 54.392 0
      vertex 97.0192 54.763 2
      vertex 97.0192 54.763 0
    endloop
  endfacet
  facet normal -0.939719 -0.341946 0
    outer loop
      vertex 97.0192 54.763 2
      vertex 97.1542 54.392 0
      vertex 97.1542 54.392 2
    endloop
  endfacet
  facet normal -0.835426 -0.549603 0
    outer loop
      vertex 97.0192 54.763 0
      vertex 96.8023 55.0927 2
      vertex 96.8023 55.0927 0
    endloop
  endfacet
  facet normal -0.835426 -0.549603 0
    outer loop
      vertex 96.8023 55.0927 2
      vertex 97.0192 54.763 0
      vertex 97.0192 54.763 2
    endloop
  endfacet
  facet normal 0.597159 -0.802123 0
    outer loop
      vertex 94.3334 55.2365 0
      vertex 94.65 55.4722 2
      vertex 94.3334 55.2365 2
    endloop
  endfacet
  facet normal 0.597159 -0.802123 0
    outer loop
      vertex 94.65 55.4722 2
      vertex 94.3334 55.2365 0
      vertex 94.65 55.4722 0
    endloop
  endfacet
  facet normal 0.173511 0.984832 -0
    outer loop
      vertex 95.4012 52.3029 0
      vertex 95.0124 52.3714 2
      vertex 95.4012 52.3029 2
    endloop
  endfacet
  facet normal 0.173511 0.984832 0
    outer loop
      vertex 95.0124 52.3714 2
      vertex 95.4012 52.3029 0
      vertex 95.0124 52.3714 0
    endloop
  endfacet
  facet normal -0.500007 0.866021 0
    outer loop
      vertex 96.5152 52.6364 0
      vertex 96.1733 52.439 2
      vertex 96.5152 52.6364 2
    endloop
  endfacet
  facet normal -0.500007 0.866021 0
    outer loop
      vertex 96.1733 52.439 2
      vertex 96.5152 52.6364 0
      vertex 96.1733 52.439 0
    endloop
  endfacet
  facet normal -0.686289 0.727329 0
    outer loop
      vertex 96.8023 52.9073 0
      vertex 96.5152 52.6364 2
      vertex 96.8023 52.9073 2
    endloop
  endfacet
  facet normal -0.686289 0.727329 0
    outer loop
      vertex 96.5152 52.6364 2
      vertex 96.8023 52.9073 0
      vertex 96.5152 52.6364 0
    endloop
  endfacet
  facet normal 0.893615 -0.448834 0
    outer loop
      vertex 93.9025 54.5814 2
      vertex 94.0797 54.9342 0
      vertex 94.0797 54.9342 2
    endloop
  endfacet
  facet normal 0.893615 -0.448834 0
    outer loop
      vertex 94.0797 54.9342 0
      vertex 93.9025 54.5814 2
      vertex 93.9025 54.5814 0
    endloop
  endfacet
  facet normal -0.500007 -0.866021 0
    outer loop
      vertex 96.1733 55.561 0
      vertex 96.5152 55.3636 2
      vertex 96.1733 55.561 2
    endloop
  endfacet
  facet normal -0.500007 -0.866021 -0
    outer loop
      vertex 96.5152 55.3636 2
      vertex 96.1733 55.561 0
      vertex 96.5152 55.3636 0
    endloop
  endfacet
  facet normal 0.597159 0.802123 -0
    outer loop
      vertex 94.65 52.5278 0
      vertex 94.3334 52.7635 2
      vertex 94.65 52.5278 2
    endloop
  endfacet
  facet normal 0.597159 0.802123 0
    outer loop
      vertex 94.3334 52.7635 2
      vertex 94.65 52.5278 0
      vertex 94.3334 52.7635 0
    endloop
  endfacet
  facet normal 0.97305 -0.230593 0
    outer loop
      vertex 93.8115 54.1974 2
      vertex 93.9025 54.5814 0
      vertex 93.9025 54.5814 2
    endloop
  endfacet
  facet normal 0.97305 -0.230593 0
    outer loop
      vertex 93.9025 54.5814 0
      vertex 93.8115 54.1974 2
      vertex 93.8115 54.1974 0
    endloop
  endfacet
  facet normal 0.97305 0.230593 0
    outer loop
      vertex 93.9025 53.4186 2
      vertex 93.8115 53.8026 0
      vertex 93.8115 53.8026 2
    endloop
  endfacet
  facet normal 0.97305 0.230593 0
    outer loop
      vertex 93.8115 53.8026 0
      vertex 93.9025 53.4186 2
      vertex 93.9025 53.4186 0
    endloop
  endfacet
  facet normal 0.396242 -0.918146 0
    outer loop
      vertex 94.65 55.4722 0
      vertex 95.0124 55.6286 2
      vertex 94.65 55.4722 2
    endloop
  endfacet
  facet normal 0.396242 -0.918146 0
    outer loop
      vertex 95.0124 55.6286 2
      vertex 94.65 55.4722 0
      vertex 95.0124 55.6286 0
    endloop
  endfacet
  facet normal -0.0580239 0.998315 0
    outer loop
      vertex 109.795 52.3258 0
      vertex 109.401 52.3029 2
      vertex 109.795 52.3258 2
    endloop
  endfacet
  facet normal -0.0580239 0.998315 0
    outer loop
      vertex 109.401 52.3029 2
      vertex 109.795 52.3258 0
      vertex 109.401 52.3029 0
    endloop
  endfacet
  facet normal -0.939719 0.341946 0
    outer loop
      vertex 111.019 53.237 0
      vertex 111.154 53.608 2
      vertex 111.154 53.608 0
    endloop
  endfacet
  facet normal -0.939719 0.341946 0
    outer loop
      vertex 111.154 53.608 2
      vertex 111.019 53.237 0
      vertex 111.019 53.237 2
    endloop
  endfacet
  facet normal -0.993185 0.116547 0
    outer loop
      vertex 111.154 53.608 0
      vertex 111.2 54 2
      vertex 111.2 54 0
    endloop
  endfacet
  facet normal -0.993185 0.116547 0
    outer loop
      vertex 111.2 54 2
      vertex 111.154 53.608 0
      vertex 111.154 53.608 2
    endloop
  endfacet
  facet normal -0.286883 -0.957966 0
    outer loop
      vertex 109.795 55.6742 0
      vertex 110.173 55.561 2
      vertex 109.795 55.6742 2
    endloop
  endfacet
  facet normal -0.286883 -0.957966 -0
    outer loop
      vertex 110.173 55.561 2
      vertex 109.795 55.6742 0
      vertex 110.173 55.561 0
    endloop
  endfacet
  facet normal 1 -0 0
    outer loop
      vertex 107.811 53.8026 2
      vertex 107.811 54.1974 0
      vertex 107.811 54.1974 2
    endloop
  endfacet
  facet normal 1 0 0
    outer loop
      vertex 107.811 54.1974 0
      vertex 107.811 53.8026 2
      vertex 107.811 53.8026 0
    endloop
  endfacet
  facet normal -0.286883 0.957966 0
    outer loop
      vertex 110.173 52.439 0
      vertex 109.795 52.3258 2
      vertex 110.173 52.439 2
    endloop
  endfacet
  facet normal -0.286883 0.957966 0
    outer loop
      vertex 109.795 52.3258 2
      vertex 110.173 52.439 0
      vertex 109.795 52.3258 0
    endloop
  endfacet
  facet normal 0.766868 0.641805 0
    outer loop
      vertex 108.333 52.7635 2
      vertex 108.08 53.0658 0
      vertex 108.08 53.0658 2
    endloop
  endfacet
  facet normal 0.766868 0.641805 0
    outer loop
      vertex 108.08 53.0658 0
      vertex 108.333 52.7635 2
      vertex 108.333 52.7635 0
    endloop
  endfacet
  facet normal -0.993185 -0.116547 0
    outer loop
      vertex 111.2 54 0
      vertex 111.154 54.392 2
      vertex 111.154 54.392 0
    endloop
  endfacet
  facet normal -0.993185 -0.116547 0
    outer loop
      vertex 111.154 54.392 2
      vertex 111.2 54 0
      vertex 111.2 54 2
    endloop
  endfacet
  facet normal -0.686415 -0.72721 0
    outer loop
      vertex 110.515 55.3636 0
      vertex 110.802 55.0927 2
      vertex 110.515 55.3636 2
    endloop
  endfacet
  facet normal -0.686415 -0.72721 -0
    outer loop
      vertex 110.802 55.0927 2
      vertex 110.515 55.3636 0
      vertex 110.802 55.0927 0
    endloop
  endfacet
  facet normal -0.83531 0.549779 0
    outer loop
      vertex 110.802 52.9073 0
      vertex 111.019 53.237 2
      vertex 111.019 53.237 0
    endloop
  endfacet
  facet normal -0.83531 0.549779 0
    outer loop
      vertex 111.019 53.237 2
      vertex 110.802 52.9073 0
      vertex 110.802 52.9073 2
    endloop
  endfacet
  facet normal 0.396611 -0.917987 0
    outer loop
      vertex 108.65 55.4722 0
      vertex 109.012 55.6286 2
      vertex 108.65 55.4722 2
    endloop
  endfacet
  facet normal 0.396611 -0.917987 0
    outer loop
      vertex 109.012 55.6286 2
      vertex 108.65 55.4722 0
      vertex 109.012 55.6286 0
    endloop
  endfacet
  facet normal 0.173424 -0.984847 0
    outer loop
      vertex 109.012 55.6286 0
      vertex 109.401 55.6971 2
      vertex 109.012 55.6286 2
    endloop
  endfacet
  facet normal 0.173424 -0.984847 0
    outer loop
      vertex 109.401 55.6971 2
      vertex 109.012 55.6286 0
      vertex 109.401 55.6971 0
    endloop
  endfacet
  facet normal 0.396611 0.917987 -0
    outer loop
      vertex 109.012 52.3714 0
      vertex 108.65 52.5278 2
      vertex 109.012 52.3714 2
    endloop
  endfacet
  facet normal 0.396611 0.917987 0
    outer loop
      vertex 108.65 52.5278 2
      vertex 109.012 52.3714 0
      vertex 108.65 52.5278 0
    endloop
  endfacet
  facet normal 0.893818 0.448429 0
    outer loop
      vertex 108.08 53.0658 2
      vertex 107.903 53.4186 0
      vertex 107.903 53.4186 2
    endloop
  endfacet
  facet normal 0.893818 0.448429 0
    outer loop
      vertex 107.903 53.4186 0
      vertex 108.08 53.0658 2
      vertex 108.08 53.0658 0
    endloop
  endfacet
  facet normal 0.766868 -0.641805 0
    outer loop
      vertex 108.08 54.9342 2
      vertex 108.333 55.2365 0
      vertex 108.333 55.2365 2
    endloop
  endfacet
  facet normal 0.766868 -0.641805 0
    outer loop
      vertex 108.333 55.2365 0
      vertex 108.08 54.9342 2
      vertex 108.08 54.9342 0
    endloop
  endfacet
  facet normal -0.939719 -0.341946 0
    outer loop
      vertex 111.154 54.392 0
      vertex 111.019 54.763 2
      vertex 111.019 54.763 0
    endloop
  endfacet
  facet normal -0.939719 -0.341946 0
    outer loop
      vertex 111.019 54.763 2
      vertex 111.154 54.392 0
      vertex 111.154 54.392 2
    endloop
  endfacet
  facet normal -0.83531 -0.549779 0
    outer loop
      vertex 111.019 54.763 0
      vertex 110.802 55.0927 2
      vertex 110.802 55.0927 0
    endloop
  endfacet
  facet normal -0.83531 -0.549779 0
    outer loop
      vertex 110.802 55.0927 2
      vertex 111.019 54.763 0
      vertex 111.019 54.763 2
    endloop
  endfacet
  facet normal -0.0580239 -0.998315 0
    outer loop
      vertex 109.401 55.6971 0
      vertex 109.795 55.6742 2
      vertex 109.401 55.6971 2
    endloop
  endfacet
  facet normal -0.0580239 -0.998315 -0
    outer loop
      vertex 109.795 55.6742 2
      vertex 109.401 55.6971 0
      vertex 109.795 55.6742 0
    endloop
  endfacet
  facet normal 0.596674 -0.802484 0
    outer loop
      vertex 108.333 55.2365 0
      vertex 108.65 55.4722 2
      vertex 108.333 55.2365 2
    endloop
  endfacet
  facet normal 0.596674 -0.802484 0
    outer loop
      vertex 108.65 55.4722 2
      vertex 108.333 55.2365 0
      vertex 108.65 55.4722 0
    endloop
  endfacet
  facet normal 0.173424 0.984847 -0
    outer loop
      vertex 109.401 52.3029 0
      vertex 109.012 52.3714 2
      vertex 109.401 52.3029 2
    endloop
  endfacet
  facet normal 0.173424 0.984847 0
    outer loop
      vertex 109.012 52.3714 2
      vertex 109.401 52.3029 0
      vertex 109.012 52.3714 0
    endloop
  endfacet
  facet normal -0.499898 0.866084 0
    outer loop
      vertex 110.515 52.6364 0
      vertex 110.173 52.439 2
      vertex 110.515 52.6364 2
    endloop
  endfacet
  facet normal -0.499898 0.866084 0
    outer loop
      vertex 110.173 52.439 2
      vertex 110.515 52.6364 0
      vertex 110.173 52.439 0
    endloop
  endfacet
  facet normal -0.686415 0.72721 0
    outer loop
      vertex 110.802 52.9073 0
      vertex 110.515 52.6364 2
      vertex 110.802 52.9073 2
    endloop
  endfacet
  facet normal -0.686415 0.72721 0
    outer loop
      vertex 110.515 52.6364 2
      vertex 110.802 52.9073 0
      vertex 110.515 52.6364 0
    endloop
  endfacet
  facet normal 0.893818 -0.448429 0
    outer loop
      vertex 107.903 54.5814 2
      vertex 108.08 54.9342 0
      vertex 108.08 54.9342 2
    endloop
  endfacet
  facet normal 0.893818 -0.448429 0
    outer loop
      vertex 108.08 54.9342 0
      vertex 107.903 54.5814 2
      vertex 107.903 54.5814 0
    endloop
  endfacet
  facet normal -0.499898 -0.866084 0
    outer loop
      vertex 110.173 55.561 0
      vertex 110.515 55.3636 2
      vertex 110.173 55.561 2
    endloop
  endfacet
  facet normal -0.499898 -0.866084 -0
    outer loop
      vertex 110.515 55.3636 2
      vertex 110.173 55.561 0
      vertex 110.515 55.3636 0
    endloop
  endfacet
  facet normal 0.596674 0.802484 -0
    outer loop
      vertex 108.65 52.5278 0
      vertex 108.333 52.7635 2
      vertex 108.65 52.5278 2
    endloop
  endfacet
  facet normal 0.596674 0.802484 0
    outer loop
      vertex 108.333 52.7635 2
      vertex 108.65 52.5278 0
      vertex 108.333 52.7635 0
    endloop
  endfacet
  facet normal 0.972479 -0.23299 0
    outer loop
      vertex 107.811 54.1974 2
      vertex 107.903 54.5814 0
      vertex 107.903 54.5814 2
    endloop
  endfacet
  facet normal 0.972479 -0.23299 0
    outer loop
      vertex 107.903 54.5814 0
      vertex 107.811 54.1974 2
      vertex 107.811 54.1974 0
    endloop
  endfacet
  facet normal 0.972479 0.23299 0
    outer loop
      vertex 107.903 53.4186 2
      vertex 107.811 53.8026 0
      vertex 107.811 53.8026 2
    endloop
  endfacet
  facet normal 0.972479 0.23299 0
    outer loop
      vertex 107.811 53.8026 0
      vertex 107.903 53.4186 2
      vertex 107.903 53.4186 0
    endloop
  endfacet
  facet normal 1 -0 0
    outer loop
      vertex 113 35 2
      vertex 113 73 0
      vertex 113 73 2
    endloop
  endfacet
  facet normal 1 0 0
    outer loop
      vertex 113 73 0
      vertex 113 35 2
      vertex 113 35 0
    endloop
  endfacet
  facet normal 0 1 -0
    outer loop
      vertex 113 73 0
      vertex 92 73 2
      vertex 113 73 2
    endloop
  endfacet
  facet normal 0 1 0
    outer loop
      vertex 92 73 2
      vertex 113 73 0
      vertex 92 73 0
    endloop
  endfacet
  facet normal 0 -1 0
    outer loop
      vertex 92 35 0
      vertex 113 35 2
      vertex 92 35 2
    endloop
  endfacet
  facet normal 0 -1 -0
    outer loop
      vertex 113 35 2
      vertex 92 35 0
      vertex 113 35 0
    endloop
  endfacet
  facet normal -1 0 0
    outer loop
      vertex 92 35 0
      vertex 92 73 2
      vertex 92 73 0
    endloop
  endfacet
  facet normal -1 -0 0
    outer loop
      vertex 92 73 2
      vertex 92 35 0
      vertex 92 35 2
    endloop
  endfacet
  facet normal 0 0 -1
    outer loop
      vertex 99.2354 64.8973 0
      vertex 104.765 64.8973 0
      vertex 99.2354 61.1027 0
    endloop
  endfacet
  facet normal 0 0 -1
    outer loop
      vertex 104.765 64.8973 0
      vertex 99.2354 64.8973 0
      vertex 99.35 65.25 0
    endloop
  endfacet
  facet normal 0 0 -1
    outer loop
      vertex 98.9354 61.3206 0
      vertex 99.2354 64.8973 0
      vertex 99.2354 61.1027 0
    endloop
  endfacet
  facet normal 0 0 -1
    outer loop
      vertex 98.9354 61.3206 0
      vertex 98.9354 64.6794 0
      vertex 99.2354 64.8973 0
    endloop
  endfacet
  facet normal 0 0 -1
    outer loop
      vertex 98.5646 61.3206 0
      vertex 98.9354 64.6794 0
      vertex 98.9354 61.3206 0
    endloop
  endfacet
  facet normal 0 0 -1
    outer loop
      vertex 98.5646 61.3206 0
      vertex 98.5646 64.6794 0
      vertex 98.9354 64.6794 0
    endloop
  endfacet
  facet normal 0 0 -1
    outer loop
      vertex 98.2646 61.1027 0
      vertex 98.5646 64.6794 0
      vertex 98.5646 61.3206 0
    endloop
  endfacet
  facet normal 0 0 -1
    outer loop
      vertex 98.2646 61.1027 0
      vertex 98.2646 64.8973 0
      vertex 98.5646 64.6794 0
    endloop
  endfacet
  facet normal 0 0 -1
    outer loop
      vertex 98.15 60.75 0
      vertex 98.2646 64.8973 0
      vertex 98.2646 61.1027 0
    endloop
  endfacet
  facet normal -0 0 -1
    outer loop
      vertex 98.2646 64.8973 0
      vertex 98.15 60.75 0
      vertex 98.15 65.25 0
    endloop
  endfacet
  facet normal 0 -0 -1
    outer loop
      vertex 97.2 54 0
      vertex 107.811 53.8026 0
      vertex 97.1542 53.608 0
    endloop
  endfacet
  facet normal 0 0 -1
    outer loop
      vertex 107.811 54.1974 0
      vertex 99.2354 60.3973 0
      vertex 99.35 60.75 0
    endloop
  endfacet
  facet normal 0 0 -1
    outer loop
      vertex 97.1542 53.608 0
      vertex 99.2354 47.6027 0
      vertex 98.9354 47.8206 0
    endloop
  endfacet
  facet normal 0 0 -1
    outer loop
      vertex 97.1542 54.392 0
      vertex 107.811 54.1974 0
      vertex 97.2 54 0
    endloop
  endfacet
  facet normal 0 0 -1
    outer loop
      vertex 96.8023 52.9073 0
      vertex 98.9354 47.8206 0
      vertex 98.5646 47.8206 0
    endloop
  endfacet
  facet normal 0 0 -1
    outer loop
      vertex 107.811 54.1974 0
      vertex 97.1542 54.392 0
      vertex 99.2354 60.3973 0
    endloop
  endfacet
  facet normal 0 0 -1
    outer loop
      vertex 96.1733 52.439 0
      vertex 98.5646 47.8206 0
      vertex 98.2646 47.6027 0
    endloop
  endfacet
  facet normal 0 0 -1
    outer loop
      vertex 99.2354 60.3973 0
      vertex 97.1542 54.392 0
      vertex 98.9354 60.1794 0
    endloop
  endfacet
  facet normal 0 0 -1
    outer loop
      vertex 95.4012 52.3029 0
      vertex 98.2646 47.6027 0
      vertex 98.15 47.25 0
    endloop
  endfacet
  facet normal 0 0 -1
    outer loop
      vertex 97.0192 54.763 0
      vertex 98.9354 60.1794 0
      vertex 97.1542 54.392 0
    endloop
  endfacet
  facet normal 0 0 -1
    outer loop
      vertex 99.2354 46.8973 0
      vertex 104.765 46.8973 0
      vertex 99.2354 43.1027 0
    endloop
  endfacet
  facet normal 0 0 -1
    outer loop
      vertex 104.765 46.8973 0
      vertex 99.2354 46.8973 0
      vertex 99.35 47.25 0
    endloop
  endfacet
  facet normal 0 0 -1
    outer loop
      vertex 98.9354 43.3206 0
      vertex 99.2354 46.8973 0
      vertex 99.2354 43.1027 0
    endloop
  endfacet
  facet normal 0 0 -1
    outer loop
      vertex 98.9354 43.3206 0
      vertex 98.9354 46.6794 0
      vertex 99.2354 46.8973 0
    endloop
  endfacet
  facet normal 0 0 -1
    outer loop
      vertex 98.5646 43.3206 0
      vertex 98.9354 46.6794 0
      vertex 98.9354 43.3206 0
    endloop
  endfacet
  facet normal 0 0 -1
    outer loop
      vertex 98.5646 43.3206 0
      vertex 98.5646 46.6794 0
      vertex 98.9354 46.6794 0
    endloop
  endfacet
  facet normal 0 0 -1
    outer loop
      vertex 98.2646 43.1027 0
      vertex 98.5646 46.6794 0
      vertex 98.5646 43.3206 0
    endloop
  endfacet
  facet normal 0 0 -1
    outer loop
      vertex 98.2646 43.1027 0
      vertex 98.2646 46.8973 0
      vertex 98.5646 46.6794 0
    endloop
  endfacet
  facet normal 0 0 -1
    outer loop
      vertex 98.15 42.75 0
      vertex 98.2646 46.8973 0
      vertex 98.2646 43.1027 0
    endloop
  endfacet
  facet normal -0 0 -1
    outer loop
      vertex 98.2646 46.8973 0
      vertex 98.15 42.75 0
      vertex 98.15 47.25 0
    endloop
  endfacet
  facet normal 0 0 -1
    outer loop
      vertex 105.735 61.1027 0
      vertex 105.85 65.25 0
      vertex 105.85 60.75 0
    endloop
  endfacet
  facet normal 0 0 -1
    outer loop
      vertex 105.735 61.1027 0
      vertex 105.735 64.8973 0
      vertex 105.85 65.25 0
    endloop
  endfacet
  facet normal 0 0 -1
    outer loop
      vertex 105.435 61.3206 0
      vertex 105.735 64.8973 0
      vertex 105.735 61.1027 0
    endloop
  endfacet
  facet normal 0 0 -1
    outer loop
      vertex 105.435 61.3206 0
      vertex 105.435 64.6794 0
      vertex 105.735 64.8973 0
    endloop
  endfacet
  facet normal 0 0 -1
    outer loop
      vertex 105.065 61.3206 0
      vertex 105.435 64.6794 0
      vertex 105.435 61.3206 0
    endloop
  endfacet
  facet normal 0 0 -1
    outer loop
      vertex 105.065 61.3206 0
      vertex 105.065 64.6794 0
      vertex 105.435 64.6794 0
    endloop
  endfacet
  facet normal 0 0 -1
    outer loop
      vertex 104.765 61.1027 0
      vertex 105.065 64.6794 0
      vertex 105.065 61.3206 0
    endloop
  endfacet
  facet normal 0 0 -1
    outer loop
      vertex 104.765 61.1027 0
      vertex 104.765 64.8973 0
      vertex 105.065 64.6794 0
    endloop
  endfacet
  facet normal 0 0 -1
    outer loop
      vertex 99.35 60.75 0
      vertex 104.765 61.1027 0
      vertex 104.65 60.75 0
    endloop
  endfacet
  facet normal 0 0 -1
    outer loop
      vertex 99.2354 61.1027 0
      vertex 104.765 61.1027 0
      vertex 99.35 60.75 0
    endloop
  endfacet
  facet normal -0 0 -1
    outer loop
      vertex 107.903 53.4186 0
      vertex 105.065 47.8206 0
      vertex 107.811 53.8026 0
    endloop
  endfacet
  facet normal 0 0 -1
    outer loop
      vertex 107.811 54.1974 0
      vertex 105.735 60.3973 0
      vertex 105.85 60.75 0
    endloop
  endfacet
  facet normal 0 0 -1
    outer loop
      vertex 104.765 47.6027 0
      vertex 99.2354 47.6027 0
      vertex 105.065 47.8206 0
    endloop
  endfacet
  facet normal 0 0 -1
    outer loop
      vertex 107.811 54.1974 0
      vertex 105.435 60.1794 0
      vertex 105.735 60.3973 0
    endloop
  endfacet
  facet normal 0 0 -1
    outer loop
      vertex 97.1542 53.608 0
      vertex 105.065 47.8206 0
      vertex 99.2354 47.6027 0
    endloop
  endfacet
  facet normal 0 0 -1
    outer loop
      vertex 107.811 54.1974 0
      vertex 105.065 60.1794 0
      vertex 105.435 60.1794 0
    endloop
  endfacet
  facet normal 0 0 -1
    outer loop
      vertex 99.2354 47.6027 0
      vertex 104.765 47.6027 0
      vertex 99.35 47.25 0
    endloop
  endfacet
  facet normal 0 0 -1
    outer loop
      vertex 105.065 47.8206 0
      vertex 97.1542 53.608 0
      vertex 107.811 53.8026 0
    endloop
  endfacet
  facet normal 0 0 -1
    outer loop
      vertex 99.35 47.25 0
      vertex 104.765 47.6027 0
      vertex 104.65 47.25 0
    endloop
  endfacet
  facet normal 0 0 -1
    outer loop
      vertex 107.811 54.1974 0
      vertex 99.35 60.75 0
      vertex 105.065 60.1794 0
    endloop
  endfacet
  facet normal 0 0 -1
    outer loop
      vertex 105.735 43.1027 0
      vertex 105.85 47.25 0
      vertex 105.85 42.75 0
    endloop
  endfacet
  facet normal 0 0 -1
    outer loop
      vertex 105.735 43.1027 0
      vertex 105.735 46.8973 0
      vertex 105.85 47.25 0
    endloop
  endfacet
  facet normal 0 0 -1
    outer loop
      vertex 105.435 43.3206 0
      vertex 105.735 46.8973 0
      vertex 105.735 43.1027 0
    endloop
  endfacet
  facet normal 0 0 -1
    outer loop
      vertex 105.435 43.3206 0
      vertex 105.435 46.6794 0
      vertex 105.735 46.8973 0
    endloop
  endfacet
  facet normal 0 0 -1
    outer loop
      vertex 105.065 43.3206 0
      vertex 105.435 46.6794 0
      vertex 105.435 43.3206 0
    endloop
  endfacet
  facet normal 0 0 -1
    outer loop
      vertex 105.065 43.3206 0
      vertex 105.065 46.6794 0
      vertex 105.435 46.6794 0
    endloop
  endfacet
  facet normal 0 0 -1
    outer loop
      vertex 104.765 43.1027 0
      vertex 105.065 46.6794 0
      vertex 105.065 43.3206 0
    endloop
  endfacet
  facet normal 0 0 -1
    outer loop
      vertex 104.765 43.1027 0
      vertex 104.765 46.8973 0
      vertex 105.065 46.6794 0
    endloop
  endfacet
  facet normal 0 0 -1
    outer loop
      vertex 99.35 42.75 0
      vertex 104.765 43.1027 0
      vertex 104.65 42.75 0
    endloop
  endfacet
  facet normal 0 0 -1
    outer loop
      vertex 99.2354 43.1027 0
      vertex 104.765 43.1027 0
      vertex 99.35 42.75 0
    endloop
  endfacet
  facet normal 0 0 -1
    outer loop
      vertex 113 35 0
      vertex 111.2 54 0
      vertex 113 73 0
    endloop
  endfacet
  facet normal 0 0 -1
    outer loop
      vertex 113 35 0
      vertex 111.154 53.608 0
      vertex 111.2 54 0
    endloop
  endfacet
  facet normal 0 0 -1
    outer loop
      vertex 113 35 0
      vertex 111.019 53.237 0
      vertex 111.154 53.608 0
    endloop
  endfacet
  facet normal 0 0 -1
    outer loop
      vertex 113 35 0
      vertex 110.802 52.9073 0
      vertex 111.019 53.237 0
    endloop
  endfacet
  facet normal 0 0 -1
    outer loop
      vertex 113 35 0
      vertex 110.515 52.6364 0
      vertex 110.802 52.9073 0
    endloop
  endfacet
  facet normal 0 0 -1
    outer loop
      vertex 105.85 42.75 0
      vertex 110.515 52.6364 0
      vertex 113 35 0
    endloop
  endfacet
  facet normal 0 0 -1
    outer loop
      vertex 110.515 52.6364 0
      vertex 105.85 42.75 0
      vertex 110.173 52.439 0
    endloop
  endfacet
  facet normal 0 0 -1
    outer loop
      vertex 105.85 47.25 0
      vertex 110.173 52.439 0
      vertex 105.85 42.75 0
    endloop
  endfacet
  facet normal 0 0 -1
    outer loop
      vertex 110.173 52.439 0
      vertex 105.85 47.25 0
      vertex 109.795 52.3258 0
    endloop
  endfacet
  facet normal 0 0 -1
    outer loop
      vertex 109.795 52.3258 0
      vertex 105.85 47.25 0
      vertex 109.401 52.3029 0
    endloop
  endfacet
  facet normal -0 0 -1
    outer loop
      vertex 109.401 52.3029 0
      vertex 105.735 47.6027 0
      vertex 109.012 52.3714 0
    endloop
  endfacet
  facet normal -0 0 -1
    outer loop
      vertex 109.012 52.3714 0
      vertex 105.735 47.6027 0
      vertex 108.65 52.5278 0
    endloop
  endfacet
  facet normal 0 0 -1
    outer loop
      vertex 105.435 47.8206 0
      vertex 108.65 52.5278 0
      vertex 105.735 47.6027 0
    endloop
  endfacet
  facet normal -0 0 -1
    outer loop
      vertex 108.333 52.7635 0
      vertex 105.435 47.8206 0
      vertex 108.08 53.0658 0
    endloop
  endfacet
  facet normal -0 0 -1
    outer loop
      vertex 108.65 52.5278 0
      vertex 105.435 47.8206 0
      vertex 108.333 52.7635 0
    endloop
  endfacet
  facet normal 0 0 -1
    outer loop
      vertex 105.735 47.6027 0
      vertex 109.401 52.3029 0
      vertex 105.85 47.25 0
    endloop
  endfacet
  facet normal 0 0 -1
    outer loop
      vertex 113 35 0
      vertex 105.735 42.3973 0
      vertex 105.85 42.75 0
    endloop
  endfacet
  facet normal 0 0 -1
    outer loop
      vertex 113 35 0
      vertex 105.435 42.1794 0
      vertex 105.735 42.3973 0
    endloop
  endfacet
  facet normal 0 0 -1
    outer loop
      vertex 113 35 0
      vertex 105.065 42.1794 0
      vertex 105.435 42.1794 0
    endloop
  endfacet
  facet normal 0 0 -1
    outer loop
      vertex 92 35 0
      vertex 105.065 42.1794 0
      vertex 113 35 0
    endloop
  endfacet
  facet normal 0 0 -1
    outer loop
      vertex 104.765 46.8973 0
      vertex 99.35 47.25 0
      vertex 104.65 47.25 0
    endloop
  endfacet
  facet normal 0 0 -1
    outer loop
      vertex 105.065 60.1794 0
      vertex 99.35 60.75 0
      vertex 104.765 60.3973 0
    endloop
  endfacet
  facet normal 0 0 -1
    outer loop
      vertex 104.765 43.1027 0
      vertex 99.2354 43.1027 0
      vertex 104.765 46.8973 0
    endloop
  endfacet
  facet normal 0 0 -1
    outer loop
      vertex 104.765 42.3973 0
      vertex 99.35 42.75 0
      vertex 104.65 42.75 0
    endloop
  endfacet
  facet normal 0 -0 -1
    outer loop
      vertex 98.9354 42.1794 0
      vertex 105.065 42.1794 0
      vertex 92 35 0
    endloop
  endfacet
  facet normal 0 0 -1
    outer loop
      vertex 104.765 42.3973 0
      vertex 99.2354 42.3973 0
      vertex 99.35 42.75 0
    endloop
  endfacet
  facet normal -0 0 -1
    outer loop
      vertex 104.765 42.3973 0
      vertex 98.9354 42.1794 0
      vertex 99.2354 42.3973 0
    endloop
  endfacet
  facet normal 0 0 -1
    outer loop
      vertex 105.065 42.1794 0
      vertex 98.9354 42.1794 0
      vertex 104.765 42.3973 0
    endloop
  endfacet
  facet normal 0 0 -1
    outer loop
      vertex 94.65 52.5278 0
      vertex 98.15 47.25 0
      vertex 98.15 42.75 0
    endloop
  endfacet
  facet normal 0 0 -1
    outer loop
      vertex 96.8023 55.0927 0
      vertex 98.9354 60.1794 0
      vertex 97.0192 54.763 0
    endloop
  endfacet
  facet normal -0 0 -1
    outer loop
      vertex 98.9354 60.1794 0
      vertex 96.8023 55.0927 0
      vertex 98.5646 60.1794 0
    endloop
  endfacet
  facet normal 0 0 -1
    outer loop
      vertex 107.811 53.8026 0
      vertex 97.2 54 0
      vertex 107.811 54.1974 0
    endloop
  endfacet
  facet normal 0 0 -1
    outer loop
      vertex 98.9354 47.8206 0
      vertex 97.0192 53.237 0
      vertex 97.1542 53.608 0
    endloop
  endfacet
  facet normal 0 0 -1
    outer loop
      vertex 98.9354 47.8206 0
      vertex 96.8023 52.9073 0
      vertex 97.0192 53.237 0
    endloop
  endfacet
  facet normal 0 0 -1
    outer loop
      vertex 98.5646 47.8206 0
      vertex 96.5152 52.6364 0
      vertex 96.8023 52.9073 0
    endloop
  endfacet
  facet normal 0 0 -1
    outer loop
      vertex 98.5646 47.8206 0
      vertex 96.1733 52.439 0
      vertex 96.5152 52.6364 0
    endloop
  endfacet
  facet normal 0 0 -1
    outer loop
      vertex 98.2646 47.6027 0
      vertex 95.7952 52.3258 0
      vertex 96.1733 52.439 0
    endloop
  endfacet
  facet normal 0 0 -1
    outer loop
      vertex 98.2646 47.6027 0
      vertex 95.4012 52.3029 0
      vertex 95.7952 52.3258 0
    endloop
  endfacet
  facet normal 0 0 -1
    outer loop
      vertex 98.15 47.25 0
      vertex 95.0124 52.3714 0
      vertex 95.4012 52.3029 0
    endloop
  endfacet
  facet normal 0 0 -1
    outer loop
      vertex 92 35 0
      vertex 98.15 42.75 0
      vertex 98.2646 42.3973 0
    endloop
  endfacet
  facet normal 0 0 -1
    outer loop
      vertex 98.15 47.25 0
      vertex 94.65 52.5278 0
      vertex 95.0124 52.3714 0
    endloop
  endfacet
  facet normal 0 0 -1
    outer loop
      vertex 98.15 42.75 0
      vertex 94.3334 52.7635 0
      vertex 94.65 52.5278 0
    endloop
  endfacet
  facet normal -0 0 -1
    outer loop
      vertex 98.15 42.75 0
      vertex 92 35 0
      vertex 94.3334 52.7635 0
    endloop
  endfacet
  facet normal -0 0 -1
    outer loop
      vertex 94.3334 52.7635 0
      vertex 92 35 0
      vertex 94.0797 53.0658 0
    endloop
  endfacet
  facet normal -0 0 -1
    outer loop
      vertex 93.8115 53.8026 0
      vertex 92 35 0
      vertex 93.8115 54.1974 0
    endloop
  endfacet
  facet normal -0 0 -1
    outer loop
      vertex 93.9025 53.4186 0
      vertex 92 35 0
      vertex 93.8115 53.8026 0
    endloop
  endfacet
  facet normal -0 0 -1
    outer loop
      vertex 94.0797 53.0658 0
      vertex 92 35 0
      vertex 93.9025 53.4186 0
    endloop
  endfacet
  facet normal -0 0 -1
    outer loop
      vertex 98.5646 42.1794 0
      vertex 92 35 0
      vertex 98.2646 42.3973 0
    endloop
  endfacet
  facet normal -0 0 -1
    outer loop
      vertex 98.9354 42.1794 0
      vertex 92 35 0
      vertex 98.5646 42.1794 0
    endloop
  endfacet
  facet normal 0 0 -1
    outer loop
      vertex 111.154 54.392 0
      vertex 113 73 0
      vertex 111.2 54 0
    endloop
  endfacet
  facet normal 0 0 -1
    outer loop
      vertex 111.019 54.763 0
      vertex 113 73 0
      vertex 111.154 54.392 0
    endloop
  endfacet
  facet normal 0 0 -1
    outer loop
      vertex 110.802 55.0927 0
      vertex 113 73 0
      vertex 111.019 54.763 0
    endloop
  endfacet
  facet normal 0 0 -1
    outer loop
      vertex 110.515 55.3636 0
      vertex 113 73 0
      vertex 110.802 55.0927 0
    endloop
  endfacet
  facet normal 0 0 -1
    outer loop
      vertex 105.85 65.25 0
      vertex 110.515 55.3636 0
      vertex 110.173 55.561 0
    endloop
  endfacet
  facet normal 0 0 -1
    outer loop
      vertex 105.85 60.75 0
      vertex 110.173 55.561 0
      vertex 109.795 55.6742 0
    endloop
  endfacet
  facet normal 0 0 -1
    outer loop
      vertex 105.85 60.75 0
      vertex 109.795 55.6742 0
      vertex 109.401 55.6971 0
    endloop
  endfacet
  facet normal 0 0 -1
    outer loop
      vertex 105.85 60.75 0
      vertex 109.401 55.6971 0
      vertex 109.012 55.6286 0
    endloop
  endfacet
  facet normal 0 0 -1
    outer loop
      vertex 105.85 60.75 0
      vertex 109.012 55.6286 0
      vertex 108.65 55.4722 0
    endloop
  endfacet
  facet normal 0 0 -1
    outer loop
      vertex 105.85 60.75 0
      vertex 108.65 55.4722 0
      vertex 108.333 55.2365 0
    endloop
  endfacet
  facet normal 0 0 -1
    outer loop
      vertex 105.85 60.75 0
      vertex 108.333 55.2365 0
      vertex 108.08 54.9342 0
    endloop
  endfacet
  facet normal 0 0 -1
    outer loop
      vertex 105.85 60.75 0
      vertex 108.08 54.9342 0
      vertex 107.903 54.5814 0
    endloop
  endfacet
  facet normal 0 0 -1
    outer loop
      vertex 105.065 47.8206 0
      vertex 108.08 53.0658 0
      vertex 105.435 47.8206 0
    endloop
  endfacet
  facet normal -0 0 -1
    outer loop
      vertex 108.08 53.0658 0
      vertex 105.065 47.8206 0
      vertex 107.903 53.4186 0
    endloop
  endfacet
  facet normal 0 0 -1
    outer loop
      vertex 107.811 54.1974 0
      vertex 105.85 60.75 0
      vertex 107.903 54.5814 0
    endloop
  endfacet
  facet normal 0 0 -1
    outer loop
      vertex 110.173 55.561 0
      vertex 105.85 60.75 0
      vertex 105.85 65.25 0
    endloop
  endfacet
  facet normal 0 0 -1
    outer loop
      vertex 110.515 55.3636 0
      vertex 105.85 65.25 0
      vertex 113 73 0
    endloop
  endfacet
  facet normal 0 0 -1
    outer loop
      vertex 105.735 65.6027 0
      vertex 113 73 0
      vertex 105.85 65.25 0
    endloop
  endfacet
  facet normal 0 0 -1
    outer loop
      vertex 105.435 65.8206 0
      vertex 113 73 0
      vertex 105.735 65.6027 0
    endloop
  endfacet
  facet normal 0 0 -1
    outer loop
      vertex 105.065 65.8206 0
      vertex 113 73 0
      vertex 105.435 65.8206 0
    endloop
  endfacet
  facet normal 0 0 -1
    outer loop
      vertex 98.9354 65.8206 0
      vertex 105.065 65.8206 0
      vertex 104.765 65.6027 0
    endloop
  endfacet
  facet normal 0 0 -1
    outer loop
      vertex 104.765 60.3973 0
      vertex 99.35 60.75 0
      vertex 104.65 60.75 0
    endloop
  endfacet
  facet normal 0 0 -1
    outer loop
      vertex 104.765 61.1027 0
      vertex 99.2354 61.1027 0
      vertex 104.765 64.8973 0
    endloop
  endfacet
  facet normal 0 0 -1
    outer loop
      vertex 104.765 64.8973 0
      vertex 99.35 65.25 0
      vertex 104.65 65.25 0
    endloop
  endfacet
  facet normal 0 0 -1
    outer loop
      vertex 104.65 65.25 0
      vertex 99.35 65.25 0
      vertex 104.765 65.6027 0
    endloop
  endfacet
  facet normal 0 0 -1
    outer loop
      vertex 99.2354 65.6027 0
      vertex 104.765 65.6027 0
      vertex 99.35 65.25 0
    endloop
  endfacet
  facet normal 0 0 -1
    outer loop
      vertex 98.9354 65.8206 0
      vertex 104.765 65.6027 0
      vertex 99.2354 65.6027 0
    endloop
  endfacet
  facet normal 0 0 -1
    outer loop
      vertex 105.065 65.8206 0
      vertex 98.9354 65.8206 0
      vertex 92 73 0
    endloop
  endfacet
  facet normal 0 0 -1
    outer loop
      vertex 92 73 0
      vertex 98.9354 65.8206 0
      vertex 98.5646 65.8206 0
    endloop
  endfacet
  facet normal 0 0 -1
    outer loop
      vertex 96.5152 55.3636 0
      vertex 98.5646 60.1794 0
      vertex 96.8023 55.0927 0
    endloop
  endfacet
  facet normal 0 0 -1
    outer loop
      vertex 96.1733 55.561 0
      vertex 98.5646 60.1794 0
      vertex 96.5152 55.3636 0
    endloop
  endfacet
  facet normal -0 0 -1
    outer loop
      vertex 98.5646 60.1794 0
      vertex 96.1733 55.561 0
      vertex 98.2646 60.3973 0
    endloop
  endfacet
  facet normal 0 0 -1
    outer loop
      vertex 95.7952 55.6742 0
      vertex 98.2646 60.3973 0
      vertex 96.1733 55.561 0
    endloop
  endfacet
  facet normal 0 0 -1
    outer loop
      vertex 95.4012 55.6971 0
      vertex 98.2646 60.3973 0
      vertex 95.7952 55.6742 0
    endloop
  endfacet
  facet normal -0 0 -1
    outer loop
      vertex 98.2646 60.3973 0
      vertex 95.4012 55.6971 0
      vertex 98.15 60.75 0
    endloop
  endfacet
  facet normal 0 0 -1
    outer loop
      vertex 95.0124 55.6286 0
      vertex 98.15 60.75 0
      vertex 95.4012 55.6971 0
    endloop
  endfacet
  facet normal 0 0 -1
    outer loop
      vertex 94.65 55.4722 0
      vertex 98.15 60.75 0
      vertex 95.0124 55.6286 0
    endloop
  endfacet
  facet normal -0 0 -1
    outer loop
      vertex 98.15 60.75 0
      vertex 94.65 55.4722 0
      vertex 98.15 65.25 0
    endloop
  endfacet
  facet normal 0 0 -1
    outer loop
      vertex 94.3334 55.2365 0
      vertex 98.15 65.25 0
      vertex 94.65 55.4722 0
    endloop
  endfacet
  facet normal 0 0 -1
    outer loop
      vertex 92 73 0
      vertex 98.15 65.25 0
      vertex 94.3334 55.2365 0
    endloop
  endfacet
  facet normal 0 0 -1
    outer loop
      vertex 92 73 0
      vertex 94.3334 55.2365 0
      vertex 94.0797 54.9342 0
    endloop
  endfacet
  facet normal 0 0 -1
    outer loop
      vertex 92 73 0
      vertex 94.0797 54.9342 0
      vertex 93.9025 54.5814 0
    endloop
  endfacet
  facet normal 0 0 -1
    outer loop
      vertex 105.065 65.8206 0
      vertex 92 73 0
      vertex 113 73 0
    endloop
  endfacet
  facet normal 0 0 -1
    outer loop
      vertex 98.2646 65.6027 0
      vertex 92 73 0
      vertex 98.5646 65.8206 0
    endloop
  endfacet
  facet normal 0 0 -1
    outer loop
      vertex 98.15 65.25 0
      vertex 92 73 0
      vertex 98.2646 65.6027 0
    endloop
  endfacet
  facet normal 0 0 -1
    outer loop
      vertex 93.8115 54.1974 0
      vertex 92 73 0
      vertex 93.9025 54.5814 0
    endloop
  endfacet
  facet normal 0 0 -1
    outer loop
      vertex 92 73 0
      vertex 93.8115 54.1974 0
      vertex 92 35 0
    endloop
  endfacet
  facet normal 0 0 1
    outer loop
      vertex 99.2354 43.1027 2
      vertex 104.765 43.1027 2
      vertex 99.2354 46.8973 2
    endloop
  endfacet
  facet normal 0 0 1
    outer loop
      vertex 104.765 43.1027 2
      vertex 99.2354 43.1027 2
      vertex 99.35 42.75 2
    endloop
  endfacet
  facet normal -0 0 1
    outer loop
      vertex 98.9354 46.6794 2
      vertex 99.2354 43.1027 2
      vertex 99.2354 46.8973 2
    endloop
  endfacet
  facet normal 0 0 1
    outer loop
      vertex 98.9354 46.6794 2
      vertex 98.9354 43.3206 2
      vertex 99.2354 43.1027 2
    endloop
  endfacet
  facet normal -0 0 1
    outer loop
      vertex 98.5646 46.6794 2
      vertex 98.9354 43.3206 2
      vertex 98.9354 46.6794 2
    endloop
  endfacet
  facet normal 0 0 1
    outer loop
      vertex 98.5646 46.6794 2
      vertex 98.5646 43.3206 2
      vertex 98.9354 43.3206 2
    endloop
  endfacet
  facet normal 0 0 1
    outer loop
      vertex 98.2646 46.8973 2
      vertex 98.5646 43.3206 2
      vertex 98.5646 46.6794 2
    endloop
  endfacet
  facet normal 0 0 1
    outer loop
      vertex 98.2646 46.8973 2
      vertex 98.2646 43.1027 2
      vertex 98.5646 43.3206 2
    endloop
  endfacet
  facet normal 0 0 1
    outer loop
      vertex 98.15 47.25 2
      vertex 98.2646 43.1027 2
      vertex 98.2646 46.8973 2
    endloop
  endfacet
  facet normal 0 0 1
    outer loop
      vertex 98.2646 43.1027 2
      vertex 98.15 47.25 2
      vertex 98.15 42.75 2
    endloop
  endfacet
  facet normal 0 -0 1
    outer loop
      vertex 97.2 54 2
      vertex 107.811 54.1974 2
      vertex 97.1542 54.392 2
    endloop
  endfacet
  facet normal 0 0 1
    outer loop
      vertex 107.811 53.8026 2
      vertex 99.2354 47.6027 2
      vertex 99.35 47.25 2
    endloop
  endfacet
  facet normal 0 0 1
    outer loop
      vertex 97.1542 54.392 2
      vertex 99.2354 60.3973 2
      vertex 98.9354 60.1794 2
    endloop
  endfacet
  facet normal 0 0 1
    outer loop
      vertex 97.1542 53.608 2
      vertex 107.811 53.8026 2
      vertex 97.2 54 2
    endloop
  endfacet
  facet normal 0 0 1
    outer loop
      vertex 96.8023 55.0927 2
      vertex 98.9354 60.1794 2
      vertex 98.5646 60.1794 2
    endloop
  endfacet
  facet normal 0 0 1
    outer loop
      vertex 107.811 53.8026 2
      vertex 97.1542 53.608 2
      vertex 99.2354 47.6027 2
    endloop
  endfacet
  facet normal 0 0 1
    outer loop
      vertex 96.1733 55.561 2
      vertex 98.5646 60.1794 2
      vertex 98.2646 60.3973 2
    endloop
  endfacet
  facet normal 0 0 1
    outer loop
      vertex 99.2354 47.6027 2
      vertex 97.1542 53.608 2
      vertex 98.9354 47.8206 2
    endloop
  endfacet
  facet normal 0 0 1
    outer loop
      vertex 95.4012 55.6971 2
      vertex 98.2646 60.3973 2
      vertex 98.15 60.75 2
    endloop
  endfacet
  facet normal -0 0 1
    outer loop
      vertex 97.0192 53.237 2
      vertex 98.9354 47.8206 2
      vertex 97.1542 53.608 2
    endloop
  endfacet
  facet normal 0 0 1
    outer loop
      vertex 99.2354 61.1027 2
      vertex 104.765 61.1027 2
      vertex 99.2354 64.8973 2
    endloop
  endfacet
  facet normal 0 0 1
    outer loop
      vertex 104.765 61.1027 2
      vertex 99.2354 61.1027 2
      vertex 99.35 60.75 2
    endloop
  endfacet
  facet normal -0 0 1
    outer loop
      vertex 98.9354 64.6794 2
      vertex 99.2354 61.1027 2
      vertex 99.2354 64.8973 2
    endloop
  endfacet
  facet normal 0 0 1
    outer loop
      vertex 98.9354 64.6794 2
      vertex 98.9354 61.3206 2
      vertex 99.2354 61.1027 2
    endloop
  endfacet
  facet normal -0 0 1
    outer loop
      vertex 98.5646 64.6794 2
      vertex 98.9354 61.3206 2
      vertex 98.9354 64.6794 2
    endloop
  endfacet
  facet normal 0 0 1
    outer loop
      vertex 98.5646 64.6794 2
      vertex 98.5646 61.3206 2
      vertex 98.9354 61.3206 2
    endloop
  endfacet
  facet normal 0 0 1
    outer loop
      vertex 98.2646 64.8973 2
      vertex 98.5646 61.3206 2
      vertex 98.5646 64.6794 2
    endloop
  endfacet
  facet normal 0 0 1
    outer loop
      vertex 98.2646 64.8973 2
      vertex 98.2646 61.1027 2
      vertex 98.5646 61.3206 2
    endloop
  endfacet
  facet normal 0 0 1
    outer loop
      vertex 98.15 65.25 2
      vertex 98.2646 61.1027 2
      vertex 98.2646 64.8973 2
    endloop
  endfacet
  facet normal 0 0 1
    outer loop
      vertex 98.2646 61.1027 2
      vertex 98.15 65.25 2
      vertex 98.15 60.75 2
    endloop
  endfacet
  facet normal -0 0 1
    outer loop
      vertex 105.735 46.8973 2
      vertex 105.85 42.75 2
      vertex 105.85 47.25 2
    endloop
  endfacet
  facet normal 0 0 1
    outer loop
      vertex 105.735 46.8973 2
      vertex 105.735 43.1027 2
      vertex 105.85 42.75 2
    endloop
  endfacet
  facet normal -0 0 1
    outer loop
      vertex 105.435 46.6794 2
      vertex 105.735 43.1027 2
      vertex 105.735 46.8973 2
    endloop
  endfacet
  facet normal 0 0 1
    outer loop
      vertex 105.435 46.6794 2
      vertex 105.435 43.3206 2
      vertex 105.735 43.1027 2
    endloop
  endfacet
  facet normal -0 0 1
    outer loop
      vertex 105.065 46.6794 2
      vertex 105.435 43.3206 2
      vertex 105.435 46.6794 2
    endloop
  endfacet
  facet normal 0 0 1
    outer loop
      vertex 105.065 46.6794 2
      vertex 105.065 43.3206 2
      vertex 105.435 43.3206 2
    endloop
  endfacet
  facet normal 0 0 1
    outer loop
      vertex 104.765 46.8973 2
      vertex 105.065 43.3206 2
      vertex 105.065 46.6794 2
    endloop
  endfacet
  facet normal 0 0 1
    outer loop
      vertex 104.765 46.8973 2
      vertex 104.765 43.1027 2
      vertex 105.065 43.3206 2
    endloop
  endfacet
  facet normal -0 0 1
    outer loop
      vertex 99.35 47.25 2
      vertex 104.765 46.8973 2
      vertex 104.65 47.25 2
    endloop
  endfacet
  facet normal 0 0 1
    outer loop
      vertex 99.2354 46.8973 2
      vertex 104.765 46.8973 2
      vertex 99.35 47.25 2
    endloop
  endfacet
  facet normal 0 0 1
    outer loop
      vertex 107.903 54.5814 2
      vertex 105.065 60.1794 2
      vertex 107.811 54.1974 2
    endloop
  endfacet
  facet normal 0 0 1
    outer loop
      vertex 107.811 53.8026 2
      vertex 105.735 47.6027 2
      vertex 105.85 47.25 2
    endloop
  endfacet
  facet normal 0 0 1
    outer loop
      vertex 104.765 60.3973 2
      vertex 99.2354 60.3973 2
      vertex 105.065 60.1794 2
    endloop
  endfacet
  facet normal 0 0 1
    outer loop
      vertex 107.811 53.8026 2
      vertex 105.435 47.8206 2
      vertex 105.735 47.6027 2
    endloop
  endfacet
  facet normal 0 0 1
    outer loop
      vertex 97.1542 54.392 2
      vertex 105.065 60.1794 2
      vertex 99.2354 60.3973 2
    endloop
  endfacet
  facet normal 0 0 1
    outer loop
      vertex 107.811 53.8026 2
      vertex 105.065 47.8206 2
      vertex 105.435 47.8206 2
    endloop
  endfacet
  facet normal 0 0 1
    outer loop
      vertex 99.2354 60.3973 2
      vertex 104.765 60.3973 2
      vertex 99.35 60.75 2
    endloop
  endfacet
  facet normal 0 0 1
    outer loop
      vertex 105.065 60.1794 2
      vertex 97.1542 54.392 2
      vertex 107.811 54.1974 2
    endloop
  endfacet
  facet normal -0 0 1
    outer loop
      vertex 99.35 60.75 2
      vertex 104.765 60.3973 2
      vertex 104.65 60.75 2
    endloop
  endfacet
  facet normal 0 0 1
    outer loop
      vertex 107.811 53.8026 2
      vertex 99.35 47.25 2
      vertex 105.065 47.8206 2
    endloop
  endfacet
  facet normal -0 0 1
    outer loop
      vertex 105.735 64.8973 2
      vertex 105.85 60.75 2
      vertex 105.85 65.25 2
    endloop
  endfacet
  facet normal 0 0 1
    outer loop
      vertex 105.735 64.8973 2
      vertex 105.735 61.1027 2
      vertex 105.85 60.75 2
    endloop
  endfacet
  facet normal -0 0 1
    outer loop
      vertex 105.435 64.6794 2
      vertex 105.735 61.1027 2
      vertex 105.735 64.8973 2
    endloop
  endfacet
  facet normal 0 0 1
    outer loop
      vertex 105.435 64.6794 2
      vertex 105.435 61.3206 2
      vertex 105.735 61.1027 2
    endloop
  endfacet
  facet normal -0 0 1
    outer loop
      vertex 105.065 64.6794 2
      vertex 105.435 61.3206 2
      vertex 105.435 64.6794 2
    endloop
  endfacet
  facet normal 0 0 1
    outer loop
      vertex 105.065 64.6794 2
      vertex 105.065 61.3206 2
      vertex 105.435 61.3206 2
    endloop
  endfacet
  facet normal 0 0 1
    outer loop
      vertex 104.765 64.8973 2
      vertex 105.065 61.3206 2
      vertex 105.065 64.6794 2
    endloop
  endfacet
  facet normal 0 0 1
    outer loop
      vertex 104.765 64.8973 2
      vertex 104.765 61.1027 2
      vertex 105.065 61.3206 2
    endloop
  endfacet
  facet normal -0 0 1
    outer loop
      vertex 99.35 65.25 2
      vertex 104.765 64.8973 2
      vertex 104.65 65.25 2
    endloop
  endfacet
  facet normal 0 0 1
    outer loop
      vertex 99.2354 64.8973 2
      vertex 104.765 64.8973 2
      vertex 99.35 65.25 2
    endloop
  endfacet
  facet normal 0 0 1
    outer loop
      vertex 113 73 2
      vertex 111.2 54 2
      vertex 113 35 2
    endloop
  endfacet
  facet normal 0 0 1
    outer loop
      vertex 113 73 2
      vertex 111.154 54.392 2
      vertex 111.2 54 2
    endloop
  endfacet
  facet normal 0 0 1
    outer loop
      vertex 113 73 2
      vertex 111.019 54.763 2
      vertex 111.154 54.392 2
    endloop
  endfacet
  facet normal 0 0 1
    outer loop
      vertex 113 73 2
      vertex 110.802 55.0927 2
      vertex 111.019 54.763 2
    endloop
  endfacet
  facet normal 0 0 1
    outer loop
      vertex 113 73 2
      vertex 110.515 55.3636 2
      vertex 110.802 55.0927 2
    endloop
  endfacet
  facet normal -0 0 1
    outer loop
      vertex 105.85 65.25 2
      vertex 110.515 55.3636 2
      vertex 113 73 2
    endloop
  endfacet
  facet normal 0 0 1
    outer loop
      vertex 110.515 55.3636 2
      vertex 105.85 65.25 2
      vertex 110.173 55.561 2
    endloop
  endfacet
  facet normal -0 0 1
    outer loop
      vertex 105.85 60.75 2
      vertex 110.173 55.561 2
      vertex 105.85 65.25 2
    endloop
  endfacet
  facet normal 0 0 1
    outer loop
      vertex 110.173 55.561 2
      vertex 105.85 60.75 2
      vertex 109.795 55.6742 2
    endloop
  endfacet
  facet normal 0 0 1
    outer loop
      vertex 109.795 55.6742 2
      vertex 105.85 60.75 2
      vertex 109.401 55.6971 2
    endloop
  endfacet
  facet normal 0 0 1
    outer loop
      vertex 109.401 55.6971 2
      vertex 105.735 60.3973 2
      vertex 109.012 55.6286 2
    endloop
  endfacet
  facet normal 0 0 1
    outer loop
      vertex 109.012 55.6286 2
      vertex 105.735 60.3973 2
      vertex 108.65 55.4722 2
    endloop
  endfacet
  facet normal -0 0 1
    outer loop
      vertex 105.435 60.1794 2
      vertex 108.65 55.4722 2
      vertex 105.735 60.3973 2
    endloop
  endfacet
  facet normal 0 0 1
    outer loop
      vertex 108.333 55.2365 2
      vertex 105.435 60.1794 2
      vertex 108.08 54.9342 2
    endloop
  endfacet
  facet normal 0 0 1
    outer loop
      vertex 108.65 55.4722 2
      vertex 105.435 60.1794 2
      vertex 108.333 55.2365 2
    endloop
  endfacet
  facet normal -0 0 1
    outer loop
      vertex 105.735 60.3973 2
      vertex 109.401 55.6971 2
      vertex 105.85 60.75 2
    endloop
  endfacet
  facet normal 0 0 1
    outer loop
      vertex 113 73 2
      vertex 105.735 65.6027 2
      vertex 105.85 65.25 2
    endloop
  endfacet
  facet normal 0 0 1
    outer loop
      vertex 113 73 2
      vertex 105.435 65.8206 2
      vertex 105.735 65.6027 2
    endloop
  endfacet
  facet normal 0 0 1
    outer loop
      vertex 113 73 2
      vertex 105.065 65.8206 2
      vertex 105.435 65.8206 2
    endloop
  endfacet
  facet normal -0 0 1
    outer loop
      vertex 92 73 2
      vertex 105.065 65.8206 2
      vertex 113 73 2
    endloop
  endfacet
  facet normal 0 0 1
    outer loop
      vertex 104.765 61.1027 2
      vertex 99.35 60.75 2
      vertex 104.65 60.75 2
    endloop
  endfacet
  facet normal 0 0 1
    outer loop
      vertex 105.065 47.8206 2
      vertex 99.35 47.25 2
      vertex 104.765 47.6027 2
    endloop
  endfacet
  facet normal 0 0 1
    outer loop
      vertex 104.765 64.8973 2
      vertex 99.2354 64.8973 2
      vertex 104.765 61.1027 2
    endloop
  endfacet
  facet normal 0 0 1
    outer loop
      vertex 104.765 65.6027 2
      vertex 99.35 65.25 2
      vertex 104.65 65.25 2
    endloop
  endfacet
  facet normal 0 -0 1
    outer loop
      vertex 98.9354 65.8206 2
      vertex 105.065 65.8206 2
      vertex 92 73 2
    endloop
  endfacet
  facet normal 0 0 1
    outer loop
      vertex 104.765 65.6027 2
      vertex 99.2354 65.6027 2
      vertex 99.35 65.25 2
    endloop
  endfacet
  facet normal 0 0 1
    outer loop
      vertex 104.765 65.6027 2
      vertex 98.9354 65.8206 2
      vertex 99.2354 65.6027 2
    endloop
  endfacet
  facet normal 0 0 1
    outer loop
      vertex 105.065 65.8206 2
      vertex 98.9354 65.8206 2
      vertex 104.765 65.6027 2
    endloop
  endfacet
  facet normal 0 0 1
    outer loop
      vertex 94.65 55.4722 2
      vertex 98.15 60.75 2
      vertex 98.15 65.25 2
    endloop
  endfacet
  facet normal -0 0 1
    outer loop
      vertex 96.8023 52.9073 2
      vertex 98.9354 47.8206 2
      vertex 97.0192 53.237 2
    endloop
  endfacet
  facet normal 0 0 1
    outer loop
      vertex 98.9354 47.8206 2
      vertex 96.8023 52.9073 2
      vertex 98.5646 47.8206 2
    endloop
  endfacet
  facet normal 0 0 1
    outer loop
      vertex 107.811 54.1974 2
      vertex 97.2 54 2
      vertex 107.811 53.8026 2
    endloop
  endfacet
  facet normal 0 0 1
    outer loop
      vertex 98.9354 60.1794 2
      vertex 97.0192 54.763 2
      vertex 97.1542 54.392 2
    endloop
  endfacet
  facet normal 0 0 1
    outer loop
      vertex 98.9354 60.1794 2
      vertex 96.8023 55.0927 2
      vertex 97.0192 54.763 2
    endloop
  endfacet
  facet normal 0 0 1
    outer loop
      vertex 98.5646 60.1794 2
      vertex 96.5152 55.3636 2
      vertex 96.8023 55.0927 2
    endloop
  endfacet
  facet normal 0 0 1
    outer loop
      vertex 98.5646 60.1794 2
      vertex 96.1733 55.561 2
      vertex 96.5152 55.3636 2
    endloop
  endfacet
  facet normal 0 0 1
    outer loop
      vertex 98.2646 60.3973 2
      vertex 95.7952 55.6742 2
      vertex 96.1733 55.561 2
    endloop
  endfacet
  facet normal 0 0 1
    outer loop
      vertex 98.2646 60.3973 2
      vertex 95.4012 55.6971 2
      vertex 95.7952 55.6742 2
    endloop
  endfacet
  facet normal 0 0 1
    outer loop
      vertex 98.15 60.75 2
      vertex 95.0124 55.6286 2
      vertex 95.4012 55.6971 2
    endloop
  endfacet
  facet normal 0 0 1
    outer loop
      vertex 92 73 2
      vertex 98.15 65.25 2
      vertex 98.2646 65.6027 2
    endloop
  endfacet
  facet normal 0 0 1
    outer loop
      vertex 98.15 60.75 2
      vertex 94.65 55.4722 2
      vertex 95.0124 55.6286 2
    endloop
  endfacet
  facet normal 0 0 1
    outer loop
      vertex 98.15 65.25 2
      vertex 94.3334 55.2365 2
      vertex 94.65 55.4722 2
    endloop
  endfacet
  facet normal 0 0 1
    outer loop
      vertex 98.15 65.25 2
      vertex 92 73 2
      vertex 94.3334 55.2365 2
    endloop
  endfacet
  facet normal 0 0 1
    outer loop
      vertex 94.3334 55.2365 2
      vertex 92 73 2
      vertex 94.0797 54.9342 2
    endloop
  endfacet
  facet normal 0 0 1
    outer loop
      vertex 93.8115 54.1974 2
      vertex 92 73 2
      vertex 93.8115 53.8026 2
    endloop
  endfacet
  facet normal 0 0 1
    outer loop
      vertex 93.9025 54.5814 2
      vertex 92 73 2
      vertex 93.8115 54.1974 2
    endloop
  endfacet
  facet normal 0 0 1
    outer loop
      vertex 94.0797 54.9342 2
      vertex 92 73 2
      vertex 93.9025 54.5814 2
    endloop
  endfacet
  facet normal 0 0 1
    outer loop
      vertex 98.5646 65.8206 2
      vertex 92 73 2
      vertex 98.2646 65.6027 2
    endloop
  endfacet
  facet normal 0 0 1
    outer loop
      vertex 98.9354 65.8206 2
      vertex 92 73 2
      vertex 98.5646 65.8206 2
    endloop
  endfacet
  facet normal -0 0 1
    outer loop
      vertex 111.154 53.608 2
      vertex 113 35 2
      vertex 111.2 54 2
    endloop
  endfacet
  facet normal -0 0 1
    outer loop
      vertex 111.019 53.237 2
      vertex 113 35 2
      vertex 111.154 53.608 2
    endloop
  endfacet
  facet normal -0 0 1
    outer loop
      vertex 110.802 52.9073 2
      vertex 113 35 2
      vertex 111.019 53.237 2
    endloop
  endfacet
  facet normal -0 0 1
    outer loop
      vertex 110.515 52.6364 2
      vertex 113 35 2
      vertex 110.802 52.9073 2
    endloop
  endfacet
  facet normal 0 0 1
    outer loop
      vertex 105.85 42.75 2
      vertex 110.515 52.6364 2
      vertex 110.173 52.439 2
    endloop
  endfacet
  facet normal 0 0 1
    outer loop
      vertex 105.85 47.25 2
      vertex 110.173 52.439 2
      vertex 109.795 52.3258 2
    endloop
  endfacet
  facet normal 0 0 1
    outer loop
      vertex 105.85 47.25 2
      vertex 109.795 52.3258 2
      vertex 109.401 52.3029 2
    endloop
  endfacet
  facet normal 0 0 1
    outer loop
      vertex 105.85 47.25 2
      vertex 109.401 52.3029 2
      vertex 109.012 52.3714 2
    endloop
  endfacet
  facet normal 0 0 1
    outer loop
      vertex 105.85 47.25 2
      vertex 109.012 52.3714 2
      vertex 108.65 52.5278 2
    endloop
  endfacet
  facet normal 0 0 1
    outer loop
      vertex 105.85 47.25 2
      vertex 108.65 52.5278 2
      vertex 108.333 52.7635 2
    endloop
  endfacet
  facet normal 0 0 1
    outer loop
      vertex 105.85 47.25 2
      vertex 108.333 52.7635 2
      vertex 108.08 53.0658 2
    endloop
  endfacet
  facet normal 0 0 1
    outer loop
      vertex 105.85 47.25 2
      vertex 108.08 53.0658 2
      vertex 107.903 53.4186 2
    endloop
  endfacet
  facet normal -0 0 1
    outer loop
      vertex 105.065 60.1794 2
      vertex 108.08 54.9342 2
      vertex 105.435 60.1794 2
    endloop
  endfacet
  facet normal 0 0 1
    outer loop
      vertex 108.08 54.9342 2
      vertex 105.065 60.1794 2
      vertex 107.903 54.5814 2
    endloop
  endfacet
  facet normal 0 0 1
    outer loop
      vertex 107.811 53.8026 2
      vertex 105.85 47.25 2
      vertex 107.903 53.4186 2
    endloop
  endfacet
  facet normal 0 0 1
    outer loop
      vertex 110.173 52.439 2
      vertex 105.85 47.25 2
      vertex 105.85 42.75 2
    endloop
  endfacet
  facet normal 0 0 1
    outer loop
      vertex 110.515 52.6364 2
      vertex 105.85 42.75 2
      vertex 113 35 2
    endloop
  endfacet
  facet normal -0 0 1
    outer loop
      vertex 105.735 42.3973 2
      vertex 113 35 2
      vertex 105.85 42.75 2
    endloop
  endfacet
  facet normal -0 0 1
    outer loop
      vertex 105.435 42.1794 2
      vertex 113 35 2
      vertex 105.735 42.3973 2
    endloop
  endfacet
  facet normal -0 0 1
    outer loop
      vertex 105.065 42.1794 2
      vertex 113 35 2
      vertex 105.435 42.1794 2
    endloop
  endfacet
  facet normal 0 0 1
    outer loop
      vertex 98.9354 42.1794 2
      vertex 105.065 42.1794 2
      vertex 104.765 42.3973 2
    endloop
  endfacet
  facet normal 0 0 1
    outer loop
      vertex 104.765 47.6027 2
      vertex 99.35 47.25 2
      vertex 104.65 47.25 2
    endloop
  endfacet
  facet normal 0 0 1
    outer loop
      vertex 104.765 46.8973 2
      vertex 99.2354 46.8973 2
      vertex 104.765 43.1027 2
    endloop
  endfacet
  facet normal 0 0 1
    outer loop
      vertex 104.765 43.1027 2
      vertex 99.35 42.75 2
      vertex 104.65 42.75 2
    endloop
  endfacet
  facet normal 0 0 1
    outer loop
      vertex 104.65 42.75 2
      vertex 99.35 42.75 2
      vertex 104.765 42.3973 2
    endloop
  endfacet
  facet normal 0 0 1
    outer loop
      vertex 99.2354 42.3973 2
      vertex 104.765 42.3973 2
      vertex 99.35 42.75 2
    endloop
  endfacet
  facet normal 0 0 1
    outer loop
      vertex 98.9354 42.1794 2
      vertex 104.765 42.3973 2
      vertex 99.2354 42.3973 2
    endloop
  endfacet
  facet normal 0 0 1
    outer loop
      vertex 105.065 42.1794 2
      vertex 98.9354 42.1794 2
      vertex 92 35 2
    endloop
  endfacet
  facet normal 0 0 1
    outer loop
      vertex 92 35 2
      vertex 98.9354 42.1794 2
      vertex 98.5646 42.1794 2
    endloop
  endfacet
  facet normal -0 0 1
    outer loop
      vertex 96.5152 52.6364 2
      vertex 98.5646 47.8206 2
      vertex 96.8023 52.9073 2
    endloop
  endfacet
  facet normal -0 0 1
    outer loop
      vertex 96.1733 52.439 2
      vertex 98.5646 47.8206 2
      vertex 96.5152 52.6364 2
    endloop
  endfacet
  facet normal 0 0 1
    outer loop
      vertex 98.5646 47.8206 2
      vertex 96.1733 52.439 2
      vertex 98.2646 47.6027 2
    endloop
  endfacet
  facet normal -0 0 1
    outer loop
      vertex 95.7952 52.3258 2
      vertex 98.2646 47.6027 2
      vertex 96.1733 52.439 2
    endloop
  endfacet
  facet normal -0 0 1
    outer loop
      vertex 95.4012 52.3029 2
      vertex 98.2646 47.6027 2
      vertex 95.7952 52.3258 2
    endloop
  endfacet
  facet normal 0 0 1
    outer loop
      vertex 98.2646 47.6027 2
      vertex 95.4012 52.3029 2
      vertex 98.15 47.25 2
    endloop
  endfacet
  facet normal 0 0 1
    outer loop
      vertex 95.0124 52.3714 2
      vertex 98.15 47.25 2
      vertex 95.4012 52.3029 2
    endloop
  endfacet
  facet normal 0 0 1
    outer loop
      vertex 94.65 52.5278 2
      vertex 98.15 47.25 2
      vertex 95.0124 52.3714 2
    endloop
  endfacet
  facet normal 0 0 1
    outer loop
      vertex 98.15 47.25 2
      vertex 94.65 52.5278 2
      vertex 98.15 42.75 2
    endloop
  endfacet
  facet normal 0 0 1
    outer loop
      vertex 94.3334 52.7635 2
      vertex 98.15 42.75 2
      vertex 94.65 52.5278 2
    endloop
  endfacet
  facet normal 0 0 1
    outer loop
      vertex 92 35 2
      vertex 98.15 42.75 2
      vertex 94.3334 52.7635 2
    endloop
  endfacet
  facet normal 0 0 1
    outer loop
      vertex 92 35 2
      vertex 94.3334 52.7635 2
      vertex 94.0797 53.0658 2
    endloop
  endfacet
  facet normal 0 0 1
    outer loop
      vertex 92 35 2
      vertex 94.0797 53.0658 2
      vertex 93.9025 53.4186 2
    endloop
  endfacet
  facet normal 0 0 1
    outer loop
      vertex 105.065 42.1794 2
      vertex 92 35 2
      vertex 113 35 2
    endloop
  endfacet
  facet normal 0 0 1
    outer loop
      vertex 98.2646 42.3973 2
      vertex 92 35 2
      vertex 98.5646 42.1794 2
    endloop
  endfacet
  facet normal 0 0 1
    outer loop
      vertex 98.15 42.75 2
      vertex 92 35 2
      vertex 98.2646 42.3973 2
    endloop
  endfacet
  facet normal 0 0 1
    outer loop
      vertex 93.8115 53.8026 2
      vertex 92 35 2
      vertex 93.9025 53.4186 2
    endloop
  endfacet
  facet normal 0 0 1
    outer loop
      vertex 92 35 2
      vertex 93.8115 53.8026 2
      vertex 92 73 2
    endloop
  endfacet
endsolid OpenSCAD_Model
